<?xml version="1.0" encoding="utf-8"?>
<!-- Generator: Adobe Illustrator 16.0.0, SVG Export Plug-In . SVG Version: 6.00 Build 0)  -->
<!DOCTYPE svg PUBLIC "-//W3C//DTD SVG 1.1//EN" "http://www.w3.org/Graphics/SVG/1.1/DTD/svg11.dtd">
<svg version="1.1" id="Capa_1" xmlns="http://www.w3.org/2000/svg" xmlns:xlink="http://www.w3.org/1999/xlink" x="0px" y="0px"
	 width="799.92px" height="799.92px" viewBox="0 0 799.92 799.92" enable-background="new 0 0 799.92 799.92" xml:space="preserve">
<g opacity="0.15">
	<g>
		<g>
			<polygon fill="#C5C5C9" points="394.881,718.83 385.308,736.629 376.968,735.518 372.388,715.828 382.547,639.602 
				405.042,642.598 			"/>
			<path fill="#C5C5C9" d="M405.186,641.51c-0.813,6.121-6.441,10.424-12.574,9.605l-0.306-0.041
				c-6.126-0.816-10.43-6.441-9.613-12.564l1.374-10.311c0.818-6.129,5.612-4.184,11.735-3.367l0.308,0.041
				c6.131,0.816,11.269,0.195,10.451,6.322L405.186,641.51z"/>
			
				<rect x="380.44" y="634.745" transform="matrix(0.9912 0.1322 -0.1322 0.9912 88.9174 -46.2717)" fill="#C5C5C9" width="25.212" height="23.954"/>
		</g>
		<path fill="#C5C5C9" d="M376.82,735.021c0,0,1.285,6.531,1.975,8.451c0.701,1.92,1.744,3.488,6.512-6.844
			C385.308,736.629,382.187,732.955,376.82,735.021z"/>
	</g>
</g>
<g opacity="0.15">
	<g>
		<g>
			<g>
				<polygon fill="#C5C5C9" points="428.622,718.158 419.039,735.959 410.712,734.85 406.126,715.16 416.287,638.932 
					438.782,641.93 				"/>
				<path fill="#C5C5C9" d="M438.928,640.84c-0.814,6.121-6.443,10.424-12.572,9.607l-0.312-0.043
					c-6.123-0.814-10.429-6.439-9.612-12.564l1.375-10.311c0.816-6.131,5.613-4.182,11.736-3.365l0.31,0.043
					c6.129,0.816,11.267,0.191,10.45,6.32L438.928,640.84z"/>
				
					<rect x="414.181" y="634.076" transform="matrix(0.9912 0.1321 -0.1321 0.9912 89.0822 -50.7159)" fill="#C5C5C9" width="25.209" height="23.954"/>
			</g>
			<path fill="#C5C5C9" d="M410.563,734.355c0,0,1.279,6.529,1.975,8.449c0.696,1.922,1.738,3.486,6.502-6.846
				C419.039,735.959,415.926,732.287,410.563,734.355z"/>
		</g>
		<path fill="#C5C5C9" d="M437.772,640.102c0,0,5.683,3.828,5.857,6.078c0.18,2.254-4.89,39.918-4.89,39.918s0.445,2.98-2.815,2.549
			l4.169-31.279l-2.018-3.873l-0.414-13.516L437.772,640.102z"/>
	</g>
</g>
<g opacity="0.15">
	<g>
		<polygon fill="#C5C5C9" points="279.983,689.627 208.03,657.059 281.876,624.488 353.074,656.299 		"/>
	</g>
	<g>
		<g>
			<rect x="347.079" y="655.164" fill="#C5C5C9" width="4.543" height="47.715"/>
			<path fill="#C5C5C9" d="M356.543,704.584c0-3.971-3.222-7.189-7.194-7.189c-3.977,0-7.194,3.219-7.194,7.189
				c0,3.975,3.217,7.199,7.194,7.199C353.322,711.783,356.543,708.559,356.543,704.584z"/>
			<g>
				<path fill="#C5C5C9" d="M346.089,706.857c0,0-5.696,11.934-3.427,30.107h8.18v-31.811
					C350.842,705.154,346.086,707.805,346.089,706.857z"/>
				<path fill="#C5C5C9" d="M353.294,706.857c0,0,5.667,11.934,3.396,30.107h-8.119v-31.811
					C348.571,705.154,353.297,707.805,353.294,706.857z"/>
			</g>
		</g>
	</g>
	<g>
		<path fill="#C5C5C9" d="M320.882,676.467c0,0.342-35.233,16.678-42.034,19.828c-6.802-3.15-42.034-19.486-42.034-19.828v48.379
			c11.353,12.066,33.739,14.018,40.901,14.332v0.057c0,0,0.413,0,1.133-0.02c0.723,0.02,1.135,0.02,1.135,0.02v-0.057
			c7.164-0.314,29.548-2.266,40.899-14.332V676.467z"/>
	</g>
</g>
<path opacity="0.15" fill="#C5C5C9" d="M152.825,315.963c4.159-1.104,8.257-2.722,11.653-5.094
	c8.67-6.058-2.492-21.933-11.653-31.897v7.262c4.679,4.648,9.762,10.854,9.67,15.813c-0.085,4.56-4.877,6.85-9.67,8V315.963
	L152.825,315.963z M152.825,307.605v-18.718c2.873,4.137,5.392,8.804,5.091,12.145C157.658,303.875,155.453,306.028,152.825,307.605
	z M143.869,270.658c0,0-2.076-1.102-2.076-5.348c0-3.516,0-17.131,0-21.67c1.36-0.789,2.03-1.769,2.212-2.845h0.506v-9.5h-0.506
	c0.026-0.113,0.049-0.229,0.049-0.338c0-2.814-5.926-5.09-13.232-5.09c-7.312,0-13.238,2.276-13.238,5.09
	c0,0.11,0.026,0.226,0.044,0.338h-0.266v9.5h0.266c0.195,1.133,1.092,2.163,3.808,2.972c0,4.654,0,18.061,0,21.543
	c0,4.246-2.876,5.348-2.876,5.348c-4.918,2.884-33.427,31.559-21.041,40.211c11.105,7.756,29.745,7.474,33.512,7.331
	c2.584,0.099,12.349,0.265,21.794-2.237v-5.916c-4.837,1.16-9.672,1.161-9.672,1.161l0,0c0,0,5.398-1.04,9.672-3.604v-18.718
	c-3.548-5.106-7.635-9.405-7.635-9.405s3.673,2.818,7.635,6.752v-7.262C148.901,274.706,145.345,271.522,143.869,270.658z"/>
<g opacity="0.15">
	<path fill="#C5C5C9" d="M648.365,217.185c0-7.229,5.855-13.09,13.086-13.09c7.227,0,13.087,5.86,13.087,13.09
		c0,7.227-5.86,13.085-13.087,13.085C654.221,230.271,648.365,224.412,648.365,217.185z"/>
	<path fill="#C5C5C9" d="M657.563,225.634c0,0.618,27.401,71.585,27.401,71.585s11.258,11.865,12.481,11.865
		c1.226,0-30.883-85.696-30.883-85.696L657.563,225.634z"/>
	<polygon fill="#C5C5C9" points="665.13,227.271 633.224,295.991 621.561,307.651 625.038,291.698 655.723,223.388 665.542,226.452 
			"/>
	<path fill="#C5C5C9" d="M664.813,206.859c0,1.317-1.067,2.382-2.391,2.382c-1.321,0-2.39-1.065-2.39-2.382v-9.568
		c0-1.32,1.068-2.389,2.39-2.389c1.323,0,2.391,1.069,2.391,2.389V206.859z"/>
</g>
<g opacity="0.15">
	<path fill="#C5C5C9" d="M470.741,244.066c11.466-0.003,20.757-25.229,20.757-56.344c0-31.114-9.291-56.339-20.757-56.342v9.167
		c9.598,0.001,17.378,21.123,17.378,47.174c0,26.055-7.78,47.176-17.378,47.178V244.066z M470.737,131.38
		c-11.463,0-20.756,25.227-20.756,56.342c0,31.117,9.293,56.344,20.756,56.344h0.004V234.9h-0.004l0,0
		c-9.597,0-17.379-21.122-17.379-47.178c0-26.054,7.782-47.174,17.379-47.174h0.004v-9.167H470.737z"/>
	<path fill="#C5C5C9" d="M527.083,187.722c0-11.459-25.225-20.755-56.342-20.756v3.375c26.052,0.001,47.173,7.784,47.173,17.381
		c0,9.599-21.121,17.381-47.173,17.381v3.375C501.858,208.478,527.083,199.189,527.083,187.722z M470.741,166.966h-0.005
		c-31.116,0-56.337,9.292-56.337,20.756c0,11.465,25.221,20.756,56.337,20.756h0.005v-3.375h-0.005
		c-26.049,0-47.172-7.782-47.172-17.381l0,0c0-9.598,21.123-17.381,47.172-17.381h0.005V166.966z"/>
	<path fill="#C5C5C9" d="M510.582,147.885c-6.324-6.324-22.562-0.861-39.841,12.286v4.484c14.468-11.01,28.064-15.585,33.359-10.293
		c6.788,6.79-2.651,27.226-21.07,45.65c-4.056,4.055-8.207,7.674-12.289,10.781v4.482c4.875-3.709,9.833-8.032,14.673-12.874
		C507.422,180.399,518.687,155.99,510.582,147.885z M470.741,160.17c-4.877,3.711-9.837,8.033-14.679,12.874
		c-22.006,22.001-33.271,46.412-25.165,54.519c6.325,6.321,22.564,0.859,39.844-12.29v-4.482
		c-14.473,11.01-28.068,15.585-33.363,10.292l0,0c-6.781-6.792,2.65-27.229,21.071-45.651c4.056-4.054,8.206-7.672,12.292-10.779
		V160.17z"/>
	<path fill="#C5C5C9" d="M510.582,227.563c8.104-8.107-3.16-32.518-25.168-54.519c-4.84-4.842-9.8-9.165-14.677-12.876v4.482
		c4.085,3.106,8.237,6.726,12.293,10.781c18.419,18.422,27.858,38.86,21.067,45.653c-5.294,5.289-18.889,0.716-33.36-10.294v4.483
		C488.017,228.422,504.258,233.884,510.582,227.563z M470.737,160.168c-17.275-13.147-33.515-18.61-39.84-12.288
		c-8.106,8.109,3.159,32.518,25.165,54.519c4.842,4.842,9.8,9.163,14.675,12.874v-4.483c-4.082-3.106-8.232-6.725-12.288-10.779
		c-18.421-18.424-27.853-38.86-21.071-45.65l0,0c5.295-5.292,18.891-0.719,33.359,10.29V160.168z"/>
	<circle fill="#C5C5C9" cx="470.808" cy="187.722" r="8.695"/>
</g>
<g opacity="0.15">
	<path fill="#C5C5C9" d="M614.758,189.603h27.83l-27.83-52.754v19.303l12.357,21.563h-12.357V189.603z M595.269,99.903v89.7h19.489
		v-11.889h-12.354v-43.125l0,0l12.354,21.563v-19.303L595.269,99.903z"/>
	<rect x="571.494" y="99.252" fill="#C5C5C9" width="11.891" height="87.969"/>
</g>
<path opacity="0.15" fill="#C5C5C9" d="M283.977,582.762c2.109-17.74-16.141-29.24-16.141-29.24
	c-1.283-0.621-2.545-1.207-3.792-1.771v16.863c1.692-0.002,3.409,0.381,5.021,1.189c5.531,2.773,7.767,9.504,4.992,15.035
	c-1.965,3.916-5.913,6.176-10.014,6.178v8.779C274.482,599.002,282.515,595.025,283.977,582.762z M264.043,551.75
	c-19.273-8.727-34.157-10.77-45.402-8.619v3.398c0.861-0.01,1.735,0.178,2.554,0.59l0,0c2.778,1.395,3.881,4.799,2.471,7.611
	c-0.994,1.98-2.972,3.141-5.025,3.162v41.918c0.718,1.988,0.76,4.232,0,6.34v9.107c10.68-4.43,18.953-16.838,30.349-15.844
	c5.251,0.459,10.391,0.738,15.053,0.381v-8.779c-1.69,0-3.407-0.383-5.02-1.191l0,0c-5.527-2.771-7.767-9.502-4.994-15.031
	c1.964-3.918,5.914-6.178,10.014-6.18V551.75z M218.642,543.131c-1.874,0.357-3.658,0.818-5.333,1.398v5.895
	c0.085-0.248,0.187-0.494,0.307-0.734c0.994-1.98,2.973-3.137,5.026-3.16V543.131L218.642,543.131z M213.308,616.682
	c1.854-0.213,3.625-0.715,5.333-1.424v-9.107c-0.127,0.357-0.277,0.705-0.45,1.051c-1.071,2.135-2.841,3.688-4.884,4.508V616.682
	L213.308,616.682z M218.642,557.893v41.918c-0.771-2.139-2.323-3.99-4.505-5.086c-0.272-0.137-0.549-0.256-0.829-0.365v-27.58
	c0.415-1.426,0.397-2.904,0-4.264v-8.412c0.458,1.348,1.419,2.516,2.781,3.197C216.909,557.713,217.782,557.902,218.642,557.893z
	 M213.308,544.529c-2.643,0.916-5.037,2.102-7.205,3.498v9.123c1.146-0.012,2.309,0.24,3.401,0.789
	c1.922,0.963,3.241,2.65,3.804,4.576v-8.412c-0.396-1.162-0.417-2.453,0-3.68V544.529L213.308,544.529z M206.103,616
	c2.554,0.766,4.942,0.941,7.205,0.682v-4.973c-2.258,0.91-4.851,0.926-7.205-0.139V616L206.103,616z M213.308,566.779v27.58
	c-2.394-0.918-4.989-0.758-7.205,0.289v-3.244c1.662-0.801,3.085-2.145,3.98-3.932c2.141-4.266,0.465-9.432-3.745-11.543
	c-0.079-0.039-0.157-0.076-0.235-0.111v-3.533c2.736-0.031,5.371-1.57,6.693-4.207C213.01,567.652,213.18,567.219,213.308,566.779z
	 M206.103,548.027c-23.818,15.34-19.816,56.936-5.656,65.414c1.978,1.186,3.857,2.018,5.656,2.559v-4.43
	c-0.112-0.051-0.224-0.104-0.334-0.158l0,0c-4.546-2.279-6.365-7.865-4.054-12.475c0.984-1.961,2.557-3.428,4.388-4.289v-3.244
	c-2.303,1.113-5.063,1.189-7.508-0.037l0,0c-4.207-2.111-5.884-7.275-3.748-11.535c2.1-4.188,7.093-5.945,11.256-4.014v-3.533
	c-1.146,0.012-2.309-0.24-3.399-0.787c-3.7-1.857-5.173-6.393-3.296-10.137l0,0c1.323-2.639,3.958-4.18,6.696-4.211V548.027z"/>
<g opacity="0.15">
	<g>
		<g>
			<g>
				<path fill="#C5C5C9" d="M543.174,621.682c11.276,8.289,18.598,21.652,18.598,36.721c0,25.15-20.387,45.543-45.545,45.543
					c-14.815,0-27.983-7.078-36.297-18.033l-4.661,3.729c9.408,12.32,24.26,20.268,40.958,20.268
					c28.443,0,51.513-23.059,51.513-51.506c0-17.045-8.281-32.156-21.035-41.531L543.174,621.682z"/>
				<path fill="#C5C5C9" d="M516.857,700.178c22.551-0.002,40.825-18.281,40.825-40.834c0-22.547-18.274-40.83-40.825-40.832v1.885
					c21.508,0.004,38.951,17.438,38.951,38.947c0,21.508-17.443,38.947-38.951,38.947V700.178z M516.852,618.512
					c-22.549,0-40.829,18.283-40.829,40.832c0,22.553,18.28,40.834,40.829,40.834h0.006v-1.887h-0.006l0,0
					c-21.508,0-38.946-17.438-38.946-38.947c0-21.512,17.438-38.947,38.946-38.947h0.006v-1.885H516.852z"/>
				<path fill="#C5C5C9" d="M511.048,620.322c0,0-13.758,1.785-23.116,12.543c0,0,7.205-7.486,11.603-7.486l0.985,0.422
					c0,0-0.141,0.373-0.284,0.512c-0.135,0.143-0.701,0.895-0.701,1.076c0,0.188,0.047,0.797,0.047,0.797l-0.329,0.465
					c0,0-0.328,0.146-0.42,0.289c-0.093,0.139-0.275,0.184-0.275,0.514c0,0.328,0.091,0.748,0.091,0.748l0.045,0.791l-0.234,0.471
					l-0.607,0.375c0,0-0.704,0.137-0.983,0c-0.284-0.143-0.375-0.707-0.375-0.707l0.798-0.51c0,0,0.094-0.145-0.144-0.283
					c-0.224-0.137-0.18-0.609-0.604-0.514s-1.074,0.652-1.074,0.652l-0.704,0.471c0,0-0.326,0.842-0.19,0.842
					c0.141,0,0.515,0.238,0.515,0.238s0.096,0.229,0.096,0.467c0,0.23-0.238,0.699-0.238,0.699s-0.135,0.234-0.606,0.145
					c-0.467-0.1-0.89-0.193-1.168-0.283c-0.275-0.094-0.563-0.234-0.844-0.141c-0.28,0.092-0.374,0.188-0.423,0.324
					c-0.044,0.145-1.024,0.701-1.024,0.701s-0.331,0.143-0.331,0.332c0,0.188-0.279,0.889-0.279,0.889s-0.326,0.328-0.936,0.467
					c-0.607,0.141-0.742,0.328-0.742,0.328l-0.331,0.701c0,0-0.471,0.328-0.796,0.754c-0.331,0.42-1.314,1.117-1.448,1.168
					c-0.145,0.045-0.52,0.467-0.66,0.838c-0.139,0.377-0.092,0.939-0.235,1.123c-0.139,0.189-0.323,0.705-0.372,1.078
					c-0.044,0.373-0.276,0.844-0.468,0.98c-0.187,0.145-0.462,0.422-0.607,0.467c-0.136,0.049-0.989,0.332-1.266,0.52
					c-0.281,0.189-0.416,0.65-0.416,0.795c0,0.141,0.416,0.471,0.555,0.471c0.138,0,0.563,0.137,0.563,0.137
					s0.049,0.746,0.049,0.891c0,0.137-0.278,0.84,0,0.84c0.277,0,0.706,0.094,0.706,0.094l0.742,0.188l0.657,0.424l0.373,0.275
					c0,0-0.092,0.424-0.188,0.564c-0.093,0.145-0.281,0.467-0.422,0.422c-0.135-0.049-0.089-0.049-0.229-0.379
					c-0.141-0.322-0.093-0.463-0.422-0.561c-0.329-0.09-0.658,0.238-0.803,0.141c-0.137-0.086-0.37-0.086-0.601-0.324
					c-0.238-0.236-0.288,0.184-0.238-0.236c0.045-0.418,0.238-0.607,0.146-0.795c-0.102-0.186-0.377-0.607-0.566-0.607
					c-0.188,0,0.094,0.375-0.188,0c-0.282-0.371-0.466-0.516-0.609-0.467c-0.139,0.047-0.325,0.096-0.325-0.145
					c0-0.229,0.141-0.699,0.141-0.932c0-0.236,0.138-0.605,0.138-0.795c0-0.188,0.19-1.313,0.19-1.313s-1.246,2.449-1.686,4.32
					c0,0,0.497-0.063,0.497,0.252s0.124,0.617,0.06,0.934c-0.06,0.313-0.06,0.252-0.06,1.254c0,0.99,0.256,1.242,0.124,1.557
					c-0.124,0.314-0.309,0.746-0.366,1.125c-0.067,0.369,0.242,1.305,0.366,1.492c0.132,0.188,0.132,0.252,0.319,0.436
					c0.185,0.189-0.319,0.938,0.185,0.189c0.496-0.75,0.683-1.061,0.683-1.061l0.317-0.369c0,0,0-0.502,0.619-0.377
					c0.624,0.121,0.688,0,0.869,0.248c0.19,0.246-0.245,0.875,0.064,0.934c0.319,0.063,1.253-0.377,1.5-0.309
					c0.249,0.061,0.563,0.121,0.688,0.561c0.121,0.438,0.309,1.061,0.563,1.184c0.251,0.131,0.188,0.686,0.304,1.064
					c0.126,0.377,0.999,0.619,1.189,0.619c0.192,0,1.063,0.125,1.311,0.252c0.255,0.123,0,0.561,0.498,0.688
					c0.502,0.125,0.626,1.123,0.626,1.123s0.188,0.871,0.066,1.121c-0.13,0.246-0.066,0.688,0.246,0.752
					c0.312,0.061,1.126,0.189,1.126,0.189s-0.441,0.613,0.248,0.871c0.683,0.244,1.369,0.492,1.561,0.619
					c0.183,0.125-0.439,0.688,0.372,0.623c0.812-0.057,1.557-0.186,1.933,0.127s0.066,0.748,1.063,1.311
					c0.996,0.563,1.308,0.748,1.556,0.873c0.249,0.125,0.748,0.059,0.622,0.809c-0.116,0.754-0.243,1.25-0.622,1.559
					c-0.375,0.316-0.866,1.313-1.12,1.621c-0.248,0.318-0.5,0.879-0.248,1.379c0.248,0.5,0.561,1.061,0.561,1.369
					c0,0.316,0.124,1.25-0.059,1.623c-0.19,0.381-0.569,1.063-0.569,1.063s0.69,0.561,0.191,1.061
					c-0.506,0.498-1.245,1.061-1.626,1.186c-0.379,0.123-1.118,0.813-1.118,0.813s0.058,1.557,0,1.871
					c-0.061,0.309-1.505,2.807-0.997,3.369c0.503,0.559,0.566,1.188,0.434,1.563c-0.125,0.373-0.31,0.309-0.434,0.619
					c-0.13,0.313-1.065,0.063-0.508,0.943c0.569,0.865,0.881,1.053,1.132,1.553c0.243,0.494,0.183,0.686,0.556,1.189
					c0.375,0.494,0.557,0.998,1.001,1.373c0.439,0.369,0.934,0.619,0.934,1.057c0,0.436,0.936,1.436-0.185,0.682
					c-1.119-0.746-0.128-0.055-1.558-1.242c-1.441-1.184-1.806-0.689-2.438-1.436c-0.621-0.748,0.317,1.871-0.869-1.242
					c-1.185-3.123-1.499-2.748-1.814-3.439c-0.306-0.686-0.063,0.064-0.93-1.498c-0.881-1.563-0.13-0.555-0.881-1.563
					c-0.748-0.99-0.814,0.381-1.181-1.434c-0.373-1.803-0.437-0.617-0.937-2.68c-0.5-2.057,0.376-2.119-0.751-3.119
					c-1.118-0.996-1.055-0.498-1.438-1.189c-0.373-0.686,0.126-0.055-0.874-1.801c-0.996-1.75-2.364-2.439-2.307-5.432
					c0.06-2.992,0.06-3.494,0.06-3.494s-1.489-1.186-0.993-2.93c0.496-1.75,0.691-1.191,0.496-1.75
					c-0.184-0.563-0.372-0.438-0.868-1.127c-0.503-0.684-0.565-0.621-0.685-1.057c-0.131-0.439-0.315-1.371-0.315-1.371
					l-0.376,0.313c0,0-3.991,39.428,35.316,45.236c0,0-9.082-1.967-9.827-3.748c0,0-0.19-1.689,0.182-1.689
					c0.376,0,0.941,0.289,1.502-0.184c0.563-0.467,1.221-1.029,1.221-1.029l0.085,0.75c0,0-0.555,0.092,1.218-0.188
					c1.787-0.277,1.787-0.094,2.435-0.373c0.66-0.283,1.411-1.686,1.781-0.842c0.367,0.842-0.47,0.469,0.367,0.842
					c0.845,0.373,2.438-0.189,2.438-0.189s2.716,0.189,3.003-0.094c0.276-0.277,0.276-0.752,0.74-0.654
					c0.473,0.096,0.745,0.84,0.745,0.84l-1.485,0.848l-1.41,1.031c0,0-0.657,0.18-0.094,0.467c0.569,0.277,0.842,0.186,1.504,0.277
					c0.649,0.094,2.239,1.309,2.617,0.563c0.373-0.752,0.465-0.84,0.746-1.307c0.275-0.469,0.185-1.031,0.845-1.031
					c0.651,0,1.306,0.188,1.306,0.188l-0.558,1.213c0,0,1.118-0.09,1.593-0.09c0.463,0,0.56,0.748,1.211,0.09
					c0.658-0.652,0.757-0.652,1.402-0.748c0.655-0.09,1.597-0.379,1.878-0.281c0.278,0.092,0.839,0.191,1.123,0.191
					c0.276,0,1.682,1.023,1.966,0.838c0.276-0.189,1.957-0.09,1.957-0.09s-4.583,4.207-14.308,4.4c0,0,21.762,0.994,33.997-20.217
					c12.231-21.219,3.743-48.42-24.205-57.902c0,0,20.903,7.74,26.421,27.762l-0.188,0.375c-0.565-0.563-0.565-0.281-1.029-1.215
					c-0.47-0.934-0.095-0.75-0.47-1.404c-0.373-0.652-0.275-0.188-0.746-0.84c-0.466-0.656-0.563-0.566-0.936-0.938
					c-0.375-0.377-0.748-1.588-1.031-1.967c-0.282-0.375-1.118-0.465-1.5-0.557c-0.375-0.098-0.188-0.564-0.375-0.098
					c-0.18,0.465,0.568,1.219,0.568,1.219v1.5c0,0,0.559,1.398,0.559,1.773c0,0.377-0.465,1.404-0.465,1.404
					s-0.19,1.121-0.569,1.313c-0.366,0.189-2.52,0.557-2.52,0.557s-0.662-0.748-1.029-1.4c-0.373-0.654-1.596-0.842-1.783-1.123
					c-0.186-0.283,0.281-0.844-0.281-1.592c-0.562-0.748,0-0.563-0.746-1.219c-0.748-0.648-0.748-0.648-0.748-0.648
					s-1.682-0.564-1.123,0.369c0.563,0.936-0.094,1.965,0.372,2.059c0.472,0.094,0.751-0.281,1.129,0.564
					c0.37,0.84,0.464,1.211,0.742,1.496c0.281,0.281,0.374,1.494,0.746,1.594c0.384,0.09,1.407,0,1.319,0.467
					c-0.097,0.469-0.66,1.121,0,1.305c0.649,0.189,0.74,0.469,1.118,0.377c0.376-0.09,0.188,0.092,0.845-0.188
					c0.654-0.277,1.407-0.277,1.407-0.277s0.834,0.65,0.834,0.932s-0.282,1.869-0.282,1.869l-0.838,1.596
					c0,0,0.094,2.811-0.376,2.811c-0.467,0-1.026,1.213-1.306,1.402c-0.284,0.186-0.378,2.059-0.378,2.059l-0.845,1.029
					c0,0-0.092,1.406,0,1.775c0.096,0.373,0.284,1.873,0.096,2.625c-0.188,0.746-1.211,1.492-1.211,1.492s1.399,1.309,0.648,1.498
					c-0.749,0.189-1.497,1.307-1.685,1.592c-0.185,0.283-0.094,0.842-0.561,0.938c-0.471,0.092-1.311,0.184-1.311,0.471
					c0,0.279,0,1.4,0,1.4l-1.494,2.154l-1.783,1.494c0,0,0.191,1.031-0.375,1.121c-0.555,0.102-2.43,0.85-2.71,1.129
					c-0.282,0.279-1.682,0.93-2.157,0.93c-0.46,0,0.282,1.313-0.46,0c-0.754-1.307-0.188-0.465-0.845-1.957
					c-0.66-1.502-0.66-0.379-0.66-1.502c0-1.121,0.097-0.094,0-1.121c-0.088-1.031,0.284-0.281-0.276-1.496
					c-0.563-1.217-0.47-0.846-1.212-1.594c-0.754-0.75-1.313,0-0.845-1.219c0.469-1.211,0.186,0,0.469-1.211
					c0.277-1.221-0.096-1.408,0.652-1.967c0.751-0.563,1.401-0.66,1.309-1.406c-0.097-0.746-0.097-1.029-0.279-1.498
					c-0.19-0.467-0.938-1.215-1.029-1.5c-0.094-0.279-0.094-0.09-0.652-0.938c-0.567-0.836-0.938-1.303-0.938-1.303
					s-0.191-1.969-0.191-2.715s-0.281,0.467,0-0.746c0.282-1.219,0.376-1.967,0.376-1.967s-1.402-0.938-1.968-0.848
					c-0.558,0.096-0.459,0.934-1.31,0.283c-0.839-0.654-0.654-1.125-0.93-1.311c-0.281-0.189-0.845-0.281-1.312,0.094
					c-0.469,0.369-1.502,0.369-2.343,0.748c-0.843,0.377-1.121,0.281-2.245,0.281s-2.438,0.371-3.276-0.096
					c-0.843-0.467-0.934,0.191-1.312-0.742c-0.373-0.941,0-0.848-0.845-1.314c-0.845-0.473-1.024-0.094-1.121-0.938
					c-0.091-0.842,0.373-0.654-0.278-1.404c-0.658-0.748,0.375,0.379-0.658-0.748c-1.026-1.125-1.401-0.184-1.026-1.125
					c0.373-0.932,0.656-0.369,0.656-1.494c0-1.127,1.68,0.467,0.649-1.777c-1.027-2.248-1.215-1.777-0.279-3.461
					c0.937-1.686,2.154-2.252,2.348-2.623c0.182-0.375,0.555-1.311,0.933-1.59c0.37-0.279,0.091-0.564,0.934-0.473
					c0.839,0.096,1.777-0.275,2.338-0.838c0.557-0.563,1.314-1.406,1.687-1.5c0.376-0.09,0.193,0.094,1.032-0.09
					c0.843-0.189,1.021-0.281,1.591-0.281c0.56,0-0.569,0.186,1.026-0.1c1.593-0.279,1.221-0.279,1.593-0.279
					c0.368,0,0.185,0.096,0.839,0.189c0.654,0.09,0.561-1.309,0.654,0.09c0.098,1.408-0.561,2.064,0.563,2.158
					c1.121,0.09,0,0.09,1.121,0.09c1.124,0,0.845,0.191,1.408,0.469c0.561,0.285,0.842,0.654,1.687,0.654
					c0.842,0-0.379,1.219,0.842,0c1.212-1.213-0.941-1.4,1.212-1.213c2.15,0.188,2.44,0.65,2.81,0.465
					c0.373-0.184,0.464,0.186,1.406-0.277c0.928-0.467,1.023-0.467,1.398-0.281c0.379,0.184,0.379,1.029,0.754,0.184
					c0.373-0.84,1.118-0.561,0-1.117c-1.129-0.566-1.502,0.09-1.684-0.66c-0.19-0.75,0.93-0.561-0.19-0.75
					c-1.121-0.186-0.936-0.186-1.778-0.465c-0.842-0.283-1.686,0.844-1.966,0c-0.278-0.842-1.871,0.561-0.278-0.842
					c1.588-1.406,0.937-1.969,1.969-1.686c1.024,0.279,0.742,1.223,1.395,0.654c0.659-0.559,1.88-0.938,0.659-1.777
					c-1.221-0.842-0.37-0.467-1.599-1.027c-1.21-0.566-2.33,2.15-2.896,1.777c-0.558-0.377-0.842-0.654-1.212-0.469
					c-0.381,0.189-0.381,1.217-0.469,1.965c-0.095,0.75,0.656,0.938-0.563,0.373c-1.213-0.561,1.312-0.273-1.406-1.309
					c-2.713-1.029-3.651-0.75-4.019-0.377c-0.376,0.377-0.936,0.285-1.223,0.564c-0.279,0.279,0.847,0.936-0.279,0.279
					c-1.123-0.654-2.241,0.377-2.241,0.377s-0.378-0.188-0.842,0.191c-0.476,0.367-1.414,0.65-1.972,0.463
					c-0.563-0.189-1.778,0.188-0.751-1.121c1.036-1.314,0.278-0.564,1.877-1.217c1.585-0.658,3.929-0.748,1.869-1.219
					c-2.057-0.467,1.121-0.467-1.593-1.775c-2.711-1.314-2.805,0.465-2.711-1.314c0.094-1.781-0.189-1.873-0.75-1.781
					c-0.558,0.096-2.242,0.471-2.896,0.568c-0.66,0.088,0.088,0.652-1.126-0.098c-1.221-0.748-1.685,0.373-1.221-0.748
					c0.469-1.123,0.566-1.305,1.314-1.963c0.754-0.658,0.561-3.092,2.432-2.158c1.869,0.941,1.124,0.658,2.628,0.752
					c1.485,0.096,2.15-0.189,2.15-0.463c0-0.289-1.695-1.123-1.695-1.123s-0.557,0.186-0.369-0.1
					c0.19-0.281,0.563-0.842,0.563-0.842l-0.563-0.465C517.597,620.047,512.357,620.047,511.048,620.322z"/>
			</g>
			<g>
				<path fill="#C5C5C9" d="M513.701,708.662v9.42c0,0-2.427,4.707-7.846,6.598c-5.422,1.877-10.379,4.791-9.904,7.613
					c0.472,2.828,6.893,5.342,25.888,5.342v-30.861L513.701,708.662z"/>
				<path fill="#C5C5C9" d="M524.556,708.662v9.42c0,0,1.95,4.707,7.365,6.598c5.42,1.877,11.976,4.791,11.506,7.613
					c-0.477,2.828-10.729,5.342-24.297,5.342v-30.861L524.556,708.662z"/>
			</g>
		</g>
	</g>
	<g>
		<g>
			<path fill="#C5C5C9" d="M543.174,621.682c11.276,8.289,18.598,21.652,18.598,36.721c0,25.15-20.387,45.543-45.545,45.543
				c-14.815,0-27.983-7.078-36.297-18.033l-4.661,3.729c9.408,12.32,24.26,20.268,40.958,20.268
				c28.443,0,51.513-23.059,51.513-51.506c0-17.045-8.281-32.156-21.035-41.531L543.174,621.682z"/>
			<path fill="#C5C5C9" d="M516.857,700.178c22.551-0.002,40.825-18.281,40.825-40.834c0-22.547-18.274-40.83-40.825-40.832v1.885
				c21.508,0.004,38.951,17.438,38.951,38.947c0,21.508-17.443,38.947-38.951,38.947V700.178z M516.852,618.512
				c-22.549,0-40.829,18.283-40.829,40.832c0,22.553,18.28,40.834,40.829,40.834h0.006v-1.887h-0.006l0,0
				c-21.508,0-38.946-17.438-38.946-38.947c0-21.512,17.438-38.947,38.946-38.947h0.006v-1.885H516.852z"/>
			<path fill="#C5C5C9" d="M511.048,620.322c0,0-13.758,1.785-23.116,12.543c0,0,7.205-7.486,11.603-7.486l0.985,0.422
				c0,0-0.141,0.373-0.284,0.512c-0.135,0.143-0.701,0.895-0.701,1.076c0,0.188,0.047,0.797,0.047,0.797l-0.329,0.465
				c0,0-0.328,0.146-0.42,0.289c-0.093,0.139-0.275,0.184-0.275,0.514c0,0.328,0.091,0.748,0.091,0.748l0.045,0.791l-0.234,0.471
				l-0.607,0.375c0,0-0.704,0.137-0.983,0c-0.284-0.143-0.375-0.707-0.375-0.707l0.798-0.51c0,0,0.094-0.145-0.144-0.283
				c-0.224-0.137-0.18-0.609-0.604-0.514s-1.074,0.652-1.074,0.652l-0.704,0.471c0,0-0.326,0.842-0.19,0.842
				c0.141,0,0.515,0.238,0.515,0.238s0.096,0.229,0.096,0.467c0,0.23-0.238,0.699-0.238,0.699s-0.135,0.234-0.606,0.145
				c-0.467-0.1-0.89-0.193-1.168-0.283c-0.275-0.094-0.563-0.234-0.844-0.141c-0.28,0.092-0.374,0.188-0.423,0.324
				c-0.044,0.145-1.024,0.701-1.024,0.701s-0.331,0.143-0.331,0.332c0,0.188-0.279,0.889-0.279,0.889s-0.326,0.328-0.936,0.467
				c-0.607,0.141-0.742,0.328-0.742,0.328l-0.331,0.701c0,0-0.471,0.328-0.796,0.754c-0.331,0.42-1.314,1.117-1.448,1.168
				c-0.145,0.045-0.52,0.467-0.66,0.838c-0.139,0.377-0.092,0.939-0.235,1.123c-0.139,0.189-0.323,0.705-0.372,1.078
				c-0.044,0.373-0.276,0.844-0.468,0.98c-0.187,0.145-0.462,0.422-0.607,0.467c-0.136,0.049-0.989,0.332-1.266,0.52
				c-0.281,0.189-0.416,0.65-0.416,0.795c0,0.141,0.416,0.471,0.555,0.471c0.138,0,0.563,0.137,0.563,0.137s0.049,0.746,0.049,0.891
				c0,0.137-0.278,0.84,0,0.84c0.277,0,0.706,0.094,0.706,0.094l0.742,0.188l0.657,0.424l0.373,0.275c0,0-0.092,0.424-0.188,0.564
				c-0.093,0.145-0.281,0.467-0.422,0.422c-0.135-0.049-0.089-0.049-0.229-0.379c-0.141-0.322-0.093-0.463-0.422-0.561
				c-0.329-0.09-0.658,0.238-0.803,0.141c-0.137-0.086-0.37-0.086-0.601-0.324c-0.238-0.236-0.288,0.184-0.238-0.236
				c0.045-0.418,0.238-0.607,0.146-0.795c-0.102-0.186-0.377-0.607-0.566-0.607c-0.188,0,0.094,0.375-0.188,0
				c-0.282-0.371-0.466-0.516-0.609-0.467c-0.139,0.047-0.325,0.096-0.325-0.145c0-0.229,0.141-0.699,0.141-0.932
				c0-0.236,0.138-0.605,0.138-0.795c0-0.188,0.19-1.313,0.19-1.313s-1.246,2.449-1.686,4.32c0,0,0.497-0.063,0.497,0.252
				s0.124,0.617,0.06,0.934c-0.06,0.313-0.06,0.252-0.06,1.254c0,0.99,0.256,1.242,0.124,1.557
				c-0.124,0.314-0.309,0.746-0.366,1.125c-0.067,0.369,0.242,1.305,0.366,1.492c0.132,0.188,0.132,0.252,0.319,0.436
				c0.185,0.189-0.319,0.938,0.185,0.189c0.496-0.75,0.683-1.061,0.683-1.061l0.317-0.369c0,0,0-0.502,0.619-0.377
				c0.624,0.121,0.688,0,0.869,0.248c0.19,0.246-0.245,0.875,0.064,0.934c0.319,0.063,1.253-0.377,1.5-0.309
				c0.249,0.061,0.563,0.121,0.688,0.561c0.121,0.438,0.309,1.061,0.563,1.184c0.251,0.131,0.188,0.686,0.304,1.064
				c0.126,0.377,0.999,0.619,1.189,0.619c0.192,0,1.063,0.125,1.311,0.252c0.255,0.123,0,0.561,0.498,0.688
				c0.502,0.125,0.626,1.123,0.626,1.123s0.188,0.871,0.066,1.121c-0.13,0.246-0.066,0.688,0.246,0.752
				c0.312,0.061,1.126,0.189,1.126,0.189s-0.441,0.613,0.248,0.871c0.683,0.244,1.369,0.492,1.561,0.619
				c0.183,0.125-0.439,0.688,0.372,0.623c0.812-0.057,1.557-0.186,1.933,0.127s0.066,0.748,1.063,1.311
				c0.996,0.563,1.308,0.748,1.556,0.873c0.249,0.125,0.748,0.059,0.622,0.809c-0.116,0.754-0.243,1.25-0.622,1.559
				c-0.375,0.316-0.866,1.313-1.12,1.621c-0.248,0.318-0.5,0.879-0.248,1.379c0.248,0.5,0.561,1.061,0.561,1.369
				c0,0.316,0.124,1.25-0.059,1.623c-0.19,0.381-0.569,1.063-0.569,1.063s0.69,0.561,0.191,1.061
				c-0.506,0.498-1.245,1.061-1.626,1.186c-0.379,0.123-1.118,0.813-1.118,0.813s0.058,1.557,0,1.871
				c-0.061,0.309-1.505,2.807-0.997,3.369c0.503,0.559,0.566,1.188,0.434,1.563c-0.125,0.373-0.31,0.309-0.434,0.619
				c-0.13,0.313-1.065,0.063-0.508,0.943c0.569,0.865,0.881,1.053,1.132,1.553c0.243,0.494,0.183,0.686,0.556,1.189
				c0.375,0.494,0.557,0.998,1.001,1.373c0.439,0.369,0.934,0.619,0.934,1.057c0,0.436,0.936,1.436-0.185,0.682
				c-1.119-0.746-0.128-0.055-1.558-1.242c-1.441-1.184-1.806-0.689-2.438-1.436c-0.621-0.748,0.317,1.871-0.869-1.242
				c-1.185-3.123-1.499-2.748-1.814-3.439c-0.306-0.686-0.063,0.064-0.93-1.498c-0.881-1.563-0.13-0.555-0.881-1.563
				c-0.748-0.99-0.814,0.381-1.181-1.434c-0.373-1.803-0.437-0.617-0.937-2.68c-0.5-2.057,0.376-2.119-0.751-3.119
				c-1.118-0.996-1.055-0.498-1.438-1.189c-0.373-0.686,0.126-0.055-0.874-1.801c-0.996-1.75-2.364-2.439-2.307-5.432
				c0.06-2.992,0.06-3.494,0.06-3.494s-1.489-1.186-0.993-2.93c0.496-1.75,0.691-1.191,0.496-1.75
				c-0.184-0.563-0.372-0.438-0.868-1.127c-0.503-0.684-0.565-0.621-0.685-1.057c-0.131-0.439-0.315-1.371-0.315-1.371l-0.376,0.313
				c0,0-3.991,39.428,35.316,45.236c0,0-9.082-1.967-9.827-3.748c0,0-0.19-1.689,0.182-1.689c0.376,0,0.941,0.289,1.502-0.184
				c0.563-0.467,1.221-1.029,1.221-1.029l0.085,0.75c0,0-0.555,0.092,1.218-0.188c1.787-0.277,1.787-0.094,2.435-0.373
				c0.66-0.283,1.411-1.686,1.781-0.842c0.367,0.842-0.47,0.469,0.367,0.842c0.845,0.373,2.438-0.189,2.438-0.189
				s2.716,0.189,3.003-0.094c0.276-0.277,0.276-0.752,0.74-0.654c0.473,0.096,0.745,0.84,0.745,0.84l-1.485,0.848l-1.41,1.031
				c0,0-0.657,0.18-0.094,0.467c0.569,0.277,0.842,0.186,1.504,0.277c0.649,0.094,2.239,1.309,2.617,0.563
				c0.373-0.752,0.465-0.84,0.746-1.307c0.275-0.469,0.185-1.031,0.845-1.031c0.651,0,1.306,0.188,1.306,0.188l-0.558,1.213
				c0,0,1.118-0.09,1.593-0.09c0.463,0,0.56,0.748,1.211,0.09c0.658-0.652,0.757-0.652,1.402-0.748
				c0.655-0.09,1.597-0.379,1.878-0.281c0.278,0.092,0.839,0.191,1.123,0.191c0.276,0,1.682,1.023,1.966,0.838
				c0.276-0.189,1.957-0.09,1.957-0.09s-4.583,4.207-14.308,4.4c0,0,21.762,0.994,33.997-20.217
				c12.231-21.219,3.743-48.42-24.205-57.902c0,0,20.903,7.74,26.421,27.762l-0.188,0.375c-0.565-0.563-0.565-0.281-1.029-1.215
				c-0.47-0.934-0.095-0.75-0.47-1.404c-0.373-0.652-0.275-0.188-0.746-0.84c-0.466-0.656-0.563-0.566-0.936-0.938
				c-0.375-0.377-0.748-1.588-1.031-1.967c-0.282-0.375-1.118-0.465-1.5-0.557c-0.375-0.098-0.188-0.564-0.375-0.098
				c-0.18,0.465,0.568,1.219,0.568,1.219v1.5c0,0,0.559,1.398,0.559,1.773c0,0.377-0.465,1.404-0.465,1.404s-0.19,1.121-0.569,1.313
				c-0.366,0.189-2.52,0.557-2.52,0.557s-0.662-0.748-1.029-1.4c-0.373-0.654-1.596-0.842-1.783-1.123
				c-0.186-0.283,0.281-0.844-0.281-1.592c-0.562-0.748,0-0.563-0.746-1.219c-0.748-0.648-0.748-0.648-0.748-0.648
				s-1.682-0.564-1.123,0.369c0.563,0.936-0.094,1.965,0.372,2.059c0.472,0.094,0.751-0.281,1.129,0.564
				c0.37,0.84,0.464,1.211,0.742,1.496c0.281,0.281,0.374,1.494,0.746,1.594c0.384,0.09,1.407,0,1.319,0.467
				c-0.097,0.469-0.66,1.121,0,1.305c0.649,0.189,0.74,0.469,1.118,0.377c0.376-0.09,0.188,0.092,0.845-0.188
				c0.654-0.277,1.407-0.277,1.407-0.277s0.834,0.65,0.834,0.932s-0.282,1.869-0.282,1.869l-0.838,1.596
				c0,0,0.094,2.811-0.376,2.811c-0.467,0-1.026,1.213-1.306,1.402c-0.284,0.186-0.378,2.059-0.378,2.059l-0.845,1.029
				c0,0-0.092,1.406,0,1.775c0.096,0.373,0.284,1.873,0.096,2.625c-0.188,0.746-1.211,1.492-1.211,1.492s1.399,1.309,0.648,1.498
				c-0.749,0.189-1.497,1.307-1.685,1.592c-0.185,0.283-0.094,0.842-0.561,0.938c-0.471,0.092-1.311,0.184-1.311,0.471
				c0,0.279,0,1.4,0,1.4l-1.494,2.154l-1.783,1.494c0,0,0.191,1.031-0.375,1.121c-0.555,0.102-2.43,0.85-2.71,1.129
				c-0.282,0.279-1.682,0.93-2.157,0.93c-0.46,0,0.282,1.313-0.46,0c-0.754-1.307-0.188-0.465-0.845-1.957
				c-0.66-1.502-0.66-0.379-0.66-1.502c0-1.121,0.097-0.094,0-1.121c-0.088-1.031,0.284-0.281-0.276-1.496
				c-0.563-1.217-0.47-0.846-1.212-1.594c-0.754-0.75-1.313,0-0.845-1.219c0.469-1.211,0.186,0,0.469-1.211
				c0.277-1.221-0.096-1.408,0.652-1.967c0.751-0.563,1.401-0.66,1.309-1.406c-0.097-0.746-0.097-1.029-0.279-1.498
				c-0.19-0.467-0.938-1.215-1.029-1.5c-0.094-0.279-0.094-0.09-0.652-0.938c-0.567-0.836-0.938-1.303-0.938-1.303
				s-0.191-1.969-0.191-2.715s-0.281,0.467,0-0.746c0.282-1.219,0.376-1.967,0.376-1.967s-1.402-0.938-1.968-0.848
				c-0.558,0.096-0.459,0.934-1.31,0.283c-0.839-0.654-0.654-1.125-0.93-1.311c-0.281-0.189-0.845-0.281-1.312,0.094
				c-0.469,0.369-1.502,0.369-2.343,0.748c-0.843,0.377-1.121,0.281-2.245,0.281s-2.438,0.371-3.276-0.096
				c-0.843-0.467-0.934,0.191-1.312-0.742c-0.373-0.941,0-0.848-0.845-1.314c-0.845-0.473-1.024-0.094-1.121-0.938
				c-0.091-0.842,0.373-0.654-0.278-1.404c-0.658-0.748,0.375,0.379-0.658-0.748c-1.026-1.125-1.401-0.184-1.026-1.125
				c0.373-0.932,0.656-0.369,0.656-1.494c0-1.127,1.68,0.467,0.649-1.777c-1.027-2.248-1.215-1.777-0.279-3.461
				c0.937-1.686,2.154-2.252,2.348-2.623c0.182-0.375,0.555-1.311,0.933-1.59c0.37-0.279,0.091-0.564,0.934-0.473
				c0.839,0.096,1.777-0.275,2.338-0.838c0.557-0.563,1.314-1.406,1.687-1.5c0.376-0.09,0.193,0.094,1.032-0.09
				c0.843-0.189,1.021-0.281,1.591-0.281c0.56,0-0.569,0.186,1.026-0.1c1.593-0.279,1.221-0.279,1.593-0.279
				c0.368,0,0.185,0.096,0.839,0.189c0.654,0.09,0.561-1.309,0.654,0.09c0.098,1.408-0.561,2.064,0.563,2.158
				c1.121,0.09,0,0.09,1.121,0.09c1.124,0,0.845,0.191,1.408,0.469c0.561,0.285,0.842,0.654,1.687,0.654
				c0.842,0-0.379,1.219,0.842,0c1.212-1.213-0.941-1.4,1.212-1.213c2.15,0.188,2.44,0.65,2.81,0.465
				c0.373-0.184,0.464,0.186,1.406-0.277c0.928-0.467,1.023-0.467,1.398-0.281c0.379,0.184,0.379,1.029,0.754,0.184
				c0.373-0.84,1.118-0.561,0-1.117c-1.129-0.566-1.502,0.09-1.684-0.66c-0.19-0.75,0.93-0.561-0.19-0.75
				c-1.121-0.186-0.936-0.186-1.778-0.465c-0.842-0.283-1.686,0.844-1.966,0c-0.278-0.842-1.871,0.561-0.278-0.842
				c1.588-1.406,0.937-1.969,1.969-1.686c1.024,0.279,0.742,1.223,1.395,0.654c0.659-0.559,1.88-0.938,0.659-1.777
				c-1.221-0.842-0.37-0.467-1.599-1.027c-1.21-0.566-2.33,2.15-2.896,1.777c-0.558-0.377-0.842-0.654-1.212-0.469
				c-0.381,0.189-0.381,1.217-0.469,1.965c-0.095,0.75,0.656,0.938-0.563,0.373c-1.213-0.561,1.312-0.273-1.406-1.309
				c-2.713-1.029-3.651-0.75-4.019-0.377c-0.376,0.377-0.936,0.285-1.223,0.564c-0.279,0.279,0.847,0.936-0.279,0.279
				c-1.123-0.654-2.241,0.377-2.241,0.377s-0.378-0.188-0.842,0.191c-0.476,0.367-1.414,0.65-1.972,0.463
				c-0.563-0.189-1.778,0.188-0.751-1.121c1.036-1.314,0.278-0.564,1.877-1.217c1.585-0.658,3.929-0.748,1.869-1.219
				c-2.057-0.467,1.121-0.467-1.593-1.775c-2.711-1.314-2.805,0.465-2.711-1.314c0.094-1.781-0.189-1.873-0.75-1.781
				c-0.558,0.096-2.242,0.471-2.896,0.568c-0.66,0.088,0.088,0.652-1.126-0.098c-1.221-0.748-1.685,0.373-1.221-0.748
				c0.469-1.123,0.566-1.305,1.314-1.963c0.754-0.658,0.561-3.092,2.432-2.158c1.869,0.941,1.124,0.658,2.628,0.752
				c1.485,0.096,2.15-0.189,2.15-0.463c0-0.289-1.695-1.123-1.695-1.123s-0.557,0.186-0.369-0.1c0.19-0.281,0.563-0.842,0.563-0.842
				l-0.563-0.465C517.597,620.047,512.357,620.047,511.048,620.322z"/>
		</g>
	</g>
</g>
<g opacity="0.15">
	<path fill="#C5C5C9" d="M598.319,495.781c-2.494-0.525-4.978-0.775-7.426-0.779v6.73c1.992,0.002,4.017,0.207,6.045,0.635
		c15.865,3.338,26.038,18.924,22.698,34.797c-2.913,13.842-15.138,23.34-28.743,23.332v6.732
		c16.726,0.014,31.752-11.662,35.332-28.684C630.331,519.033,617.836,499.887,598.319,495.781z M590.894,495.002
		c-16.729-0.021-31.753,11.66-35.336,28.676c-4.104,19.518,8.383,38.666,27.898,42.773c2.495,0.523,4.983,0.773,7.438,0.777v-6.732
		c-1.999-0.002-4.022-0.207-6.055-0.635l0,0c-15.867-3.338-26.032-18.918-22.689-34.797c2.913-13.842,15.134-23.342,28.744-23.332
		V495.002z"/>
	
		<rect x="575.762" y="562.253" transform="matrix(0.9785 0.2061 -0.2061 0.9785 131.9606 -107.2182)" fill="#C5C5C9" width="9.761" height="35.135"/>
	<path fill="#C5C5C9" d="M581.182,615.174c-0.884,4.223-5.031,6.922-9.249,6.033c-4.215-0.885-6.917-5.023-6.025-9.25l6.829-32.469
		c0.886-4.217,5.027-6.92,9.245-6.037c4.219,0.891,6.921,5.031,6.032,9.25L581.182,615.174z"/>
</g>
<path opacity="0.15" fill="#C5C5C9" d="M392.699,106.32c0,0-16.614-16.752-47.174-0.674V35.157c0,0,31.228-17.69,48.243,0h48.246
	v70.759L392.699,106.32z"/>
<path opacity="0.15" fill="#C5C5C9" d="M404.515,586.574h-7.797v4.979h7.994c0.975,0,1.764,0.787,1.764,1.764
	c0,0.975-0.789,1.77-1.764,1.77l0,0h-7.994v11.57h7.797c5.21,0,9.433-4.221,9.433-9.428v-1.227
	C413.947,590.795,409.725,586.574,404.515,586.574L404.515,586.574z M396.718,577.535h28.238c5.207,0,9.432-4.223,9.432-9.432
	v-49.518c0-5.205-4.225-9.426-9.432-9.426h-28.238v6.34h22.924c4.238,0,7.679,3.438,7.679,7.684v40.322
	c0,4.25-3.44,7.688-7.679,7.688h-22.924V577.535z M396.718,586.574h-9.885v-9.039h9.885v-6.342h-21.281v35.463h21.281v-11.57h-7.986
	c-0.976,0-1.772-0.795-1.772-1.77c0-0.977,0.797-1.764,1.772-1.764h7.986V586.574L396.718,586.574z M396.718,509.16h-21.281v6.34
	h21.281V509.16z M375.437,509.16h-49.521c-5.21,0-9.432,4.221-9.432,9.426v49.518c0,5.209,4.221,9.432,9.432,9.432h37.727v9.039
	h-16.896c-5.205,0-9.427,4.221-9.427,9.428v1.227c0,5.207,4.222,9.428,9.427,9.428h28.689v-35.463h-44.204l0,0
	c-4.245,0-7.682-3.438-7.682-7.688v-40.322c0-4.246,3.437-7.684,7.682-7.684h44.204V509.16z"/>
<path opacity="0.15" fill="#C5C5C9" d="M655.449,357.388l20.809-25.464l-20.809-17.012v12.849c1.189,0,2.391,0.396,3.385,1.208
	c2.288,1.872,2.627,5.242,0.759,7.532l0,0c-1.058,1.292-2.596,1.962-4.144,1.963V357.388z M634.397,339.855l14.694,12.016
	l-1.877,2.298l-14.694-12.015l-4.307,5.267l7.74,6.324l-1.872,2.29l-7.737-6.327l-4.302,5.263l7.735,6.327l-1.871,2.295l-7.74-6.325
	l-4.307,5.268l7.742,6.321l-1.868,2.287l-7.735-6.324l-4.31,5.268l14.695,12.015l-1.872,2.288l-14.7-12.008l-4.301,5.26l7.737,6.33
	l-1.871,2.288l-7.74-6.324l-4.302,5.265l7.741,6.324l-1.875,2.292l-7.735-6.325l-4.304,5.266l7.738,6.323l-1.874,2.297l-7.741-6.333
	l-4.3,5.267l14.696,12.009l-1.875,2.295l-14.696-12.014l-4.305,5.266l7.741,6.328l-1.872,2.291l-7.74-6.33l-4.308,5.271l7.742,6.326
	l-1.875,2.289l-7.735-6.324l-4.304,5.264l7.738,6.324l-1.872,2.289l-7.74-6.324l-4.304,5.262l14.699,12.014l-1.873,2.295
	l-14.698-12.014l-4.307,5.268l7.744,6.328l-1.872,2.287l-7.74-6.328l-4.307,5.27l7.74,6.326l-1.871,2.285l-7.735-6.326l-4.304,5.266
	l7.737,6.326l-1.871,2.293l-7.741-6.324l-4.307,5.268l14.692,12.012l-1.867,2.287l-14.696-12.014l-8.583,10.5l21.215,17.336
	l109.115-133.499v-18.924c-1.195,0-2.394-0.394-3.388-1.207c-2.285-1.873-2.631-5.242-0.759-7.532
	c1.058-1.293,2.595-1.962,4.146-1.964v-12.849l-0.4-0.327L634.397,339.855z"/>
<path opacity="0.15" fill="#C5C5C9" d="M688.565,423.98c1.192-0.309,2.23-1.156,2.705-2.393l8.887-23.048
	c0.662-1.729,0.027-3.627-1.424-4.645l3.604-9.344c2.645-6.86-0.778-14.573-7.636-17.216c-2.021-0.778-4.119-1.029-6.137-0.82
	v22.974l1.863,1.201l-1.863-0.719v10.457l1.57-4.074c0.516-1.339,0.141-2.803-0.834-3.737l6.413,2.473
	c1.745,0.673,2.612,2.632,1.941,4.379l-7.62,19.754c-0.29,0.754-0.819,1.344-1.471,1.717V423.98z M666.492,480.563l21.789-56.52
	c0.097-0.018,0.189-0.039,0.284-0.063v-3.041c-0.854,0.488-1.91,0.604-2.901,0.223l-6.413-2.471l0,0
	c1.354-0.039,2.611-0.873,3.127-2.211l6.188-16.052v-10.457l-14.664-5.65c-1.759-0.218-3.507,0.764-4.168,2.491l-8.884,23.045
	c-0.518,1.336-0.246,2.773,0.565,3.828l-7.77,20.146v35.564c0.537-0.012,1.084,0.078,1.613,0.283
	c1.889,0.723,2.954,2.658,2.666,4.578c1.077-1.615,3.164-2.334,5.05-1.605c2.184,0.84,3.271,3.293,2.433,5.484l-0.462,1.188
	l-11.3,7.588v2.277L666.492,480.563L666.492,480.563z M688.565,366.515v22.974l-13.339-8.6l2.28-5.913
	C679.369,370.142,683.748,367.017,688.565,366.515z M653.646,433.832l-14.021,36.375l6.049,24.338l7.972-5.355v-2.277l-0.706,0.477
	l-7.845-3.023l-3.487-14.037l0,0l0.461-1.191c0.842-2.186,3.294-3.273,5.475-2.434c1.888,0.729,2.957,2.66,2.673,4.58
	c0.77-1.162,2.064-1.857,3.43-1.887V433.832z"/>
<g opacity="0.15">
	<path fill="#C5C5C9" d="M465.165,382.574L465.165,382.574v14.131c2.981-0.001,5.527-1.851,6.565-4.465
		c19.29,2.858,34.537,18.106,37.396,37.395c-2.614,1.037-4.464,3.584-4.464,6.566s1.85,5.527,4.464,6.564
		c-2.859,19.289-18.106,34.539-37.396,37.396l0,0c-1.038-2.611-3.584-4.463-6.565-4.465v14.131l0,0
		c29.618,0,53.628-24.01,53.628-53.627S494.783,382.574,465.165,382.574z M465.165,382.574L465.165,382.574
		c-29.617,0-53.626,24.01-53.626,53.627s24.009,53.627,53.626,53.627l0,0v-14.131l0,0c-2.98,0-5.529,1.852-6.564,4.465
		c-19.289-2.855-34.537-18.107-37.393-37.396c2.611-1.037,4.461-3.582,4.461-6.564c0-2.98-1.85-5.525-4.461-6.566
		c2.855-19.289,18.104-34.54,37.393-37.395c1.035,2.614,3.584,4.465,6.564,4.465l0,0V382.574z"/>
	<path fill="#C5C5C9" d="M481.136,416.422l-12.306,12.307c-1.106-0.545-2.35-0.859-3.666-0.859c-3.653,0-6.752,2.359-7.873,5.637
		h-25.982v5.391h25.982c1.121,3.275,4.22,5.637,7.873,5.637c4.603,0,8.331-3.732,8.331-8.332c0-1.316-0.313-2.557-0.857-3.662
		l12.307-12.309L481.136,416.422z"/>
</g>
<g opacity="0.15">
	<path fill="#C5C5C9" d="M513.172,536.9c-6.433,0-12.3,2.33-16.746,6.16c-4.45-3.83-10.316-6.16-16.749-6.16
		c-13.892,0-25.148,10.848-25.148,24.234c0,15.316,12.688,38.84,43.209,38.84c31.435,0,40.58-24.895,40.58-38.84
		C538.317,547.748,527.061,536.9,513.172,536.9z"/>
	<path fill="#C5C5C9" d="M496.865,549.506c-4.865-9.953-1.842-21.158,5.971-28.973l11.945,2.211
		C503.572,528.938,496.793,535.426,496.865,549.506z"/>
</g>
<g opacity="0.15">
	<g>
		<path fill="#C5C5C9" d="M321.292,80.453l-2.863-4.286l-90.982,60.773c-6.494,4.334-15.65,2.025-20.451-5.16
			c-4.793-7.188-3.42-16.528,3.071-20.859l90.987-60.769l-2.861-4.286l-92.124,61.527c-8.631,5.759-10.456,18.173-4.084,27.73
			c6.382,9.554,18.555,12.625,27.188,6.86L321.292,80.453z"/>
		<path fill="#C5C5C9" d="M323.54,86.505c-1.717,1.145-4.036,0.682-5.18-1.033l-25.925-38.815c-1.146-1.714-0.686-4.032,1.031-5.178
			c1.716-1.145,4.035-0.684,5.177,1.03l25.925,38.817C325.712,83.041,325.255,85.36,323.54,86.505z"/>
	</g>
	<path fill="#C5C5C9" d="M307.103,78.039l-3.534-5.292l-81.34,54.33c-3.003,2.005-6.791,2.038-10.044,0.453
		c0.123,0.21,0.228,0.428,0.367,0.635c3.323,4.975,9.663,6.574,14.157,3.573L307.103,78.039z"/>
</g>
<path opacity="0.15" fill="#C5C5C9" d="M158.656,208.877c-0.625-0.163-1.25-0.24-1.866-0.24v14.805
	c3.291,0.003,6.295-2.205,7.162-5.539C164.981,213.948,162.61,209.906,158.656,208.877L158.656,208.877z M156.791,202.458V160.21
	c3.173-2.333,6.979-3.446,10.828-3.501l6.379-24.506c0.799-3.07,3.934-4.908,7.002-4.11c3.068,0.798,4.908,3.934,4.111,7.002
	l-6.379,24.506c6.697,3.867,11.167,11.381,8.575,21.339c0,0-2.096,8.043-3.196,12.269l0,0c-1.468,5.638,5.8,9.031,5.8,9.031
	l-2.156,8.276L156.791,202.458z M156.791,208.637c-3.292-0.002-6.294,2.207-7.163,5.537c-1.028,3.956,1.343,7.999,5.299,9.028
	c0.623,0.163,1.249,0.239,1.864,0.24V208.637L156.791,208.637z M156.791,160.21v42.249l-21.875-5.693l2.153-8.278
	c0,0,7.984,0.635,9.469-5.059c1.268-4.875,3.193-12.271,3.193-12.271C151.031,166.158,153.588,162.564,156.791,160.21z"/>
<path opacity="0.15" fill="#C5C5C9" d="M162.028,392.258c1.714-3.651,2.672-7.727,2.672-12.022c0-4.301-0.958-8.378-2.672-12.03
	V392.258L162.028,392.258z M162.028,409.492v-6.387c0.66,0.01,1.32,0.266,1.833,0.77l0,0l8.95,8.971c1.03,1.021,1.03,2.693,0,3.715
	c-1.022,1.025-2.697,1.025-3.715,0L162.028,409.492L162.028,409.492z M162.028,357.423v-6.388l7.067-7.066
	c1.018-1.028,2.693-1.028,3.715,0c1.03,1.032,1.03,2.693,0,3.723l-8.95,8.961l0,0C163.348,357.158,162.688,357.415,162.028,357.423
	L162.028,357.423z M185.211,377.636L185.211,377.636h-12.673c-1.449,0-2.625,1.183-2.625,2.635c0,1.449,1.175,2.631,2.625,2.631
	h12.673c1.455,0,2.629-1.182,2.629-2.631C187.841,378.819,186.667,377.636,185.211,377.636z M136.316,440.324h1.992
	c7.755-0.004,14.025-6.289,14.031-14.031v-22.641c4.162-2.851,7.527-6.785,9.688-11.394v-24.053
	c-4.529-9.658-14.337-16.345-25.712-16.347v5.851c6.235,0.001,11.84,2.52,15.934,6.598c4.085,4.074,6.587,9.695,6.587,15.929
	c0,8.206-4.385,15.368-10.938,19.314l0,0c-0.879,0.521-1.416,1.489-1.416,2.51v12.967h-10.167V440.324L136.316,440.324z
	 M162.028,351.036v6.388c-0.686,0.011-1.372-0.247-1.896-0.771c-1.035-1.022-1.035-2.698,0-3.723L162.028,351.036L162.028,351.036z
	 M162.028,403.105v6.387l-1.896-1.896c-1.035-1.025-1.035-2.689,0-3.721C160.656,403.354,161.342,403.096,162.028,403.105
	L162.028,403.105z M136.316,346.867v-17.926c0.069-0.004,0.138-0.008,0.208-0.008c1.448,0,2.624,1.181,2.624,2.644v12.662
	c0,1.459-1.176,2.637-2.624,2.637l0,0C136.454,346.875,136.385,346.873,136.316,346.867z M136.315,351.859
	c-11.206,0.002-20.896,6.505-25.504,15.946v24.856c2.255,4.618,5.725,8.536,9.994,11.329v22.303c0,7.742,6.284,14.027,14.036,14.031
	h1.475v-25.297h-9.651v-12.682c0-1.047-0.558-2.013-1.486-2.539c-6.804-3.878-11.383-11.187-11.383-19.571
	c0-6.233,2.511-11.854,6.588-15.929c4.094-4.079,9.713-6.598,15.931-6.598h0L136.315,351.859L136.315,351.859L136.315,351.859z
	 M136.316,328.941v17.926c-1.362-0.105-2.433-1.239-2.433-2.628v-12.662C133.883,330.183,134.954,329.046,136.316,328.941
	L136.316,328.941z M110.812,409.693v-6.576c0.749-0.066,1.521,0.188,2.094,0.758c1.023,1.031,1.023,2.695,0,3.721L110.812,409.693
	L110.812,409.693z M110.812,357.414v-6.579l2.094,2.096c1.023,1.024,1.023,2.698,0,3.723
	C112.336,357.226,111.563,357.48,110.812,357.414z M110.812,367.805c-1.831,3.754-2.86,7.972-2.86,12.431
	c0,4.457,1.029,8.674,2.86,12.426V367.805L110.812,367.805z M110.812,350.834v6.579c-0.593-0.054-1.173-0.307-1.626-0.761l0,0
	l-8.956-8.961c-1.037-1.029-1.037-2.69,0-3.723c1.022-1.028,2.691-1.028,3.724,0L110.812,350.834L110.812,350.834z M110.812,403.117
	v6.576l-6.858,6.867c-1.033,1.025-2.702,1.025-3.724,0c-1.037-1.021-1.037-2.693,0-3.715l8.956-8.971l0,0
	C109.64,403.422,110.219,403.168,110.812,403.117L110.812,403.117z M103.126,380.271L103.126,380.271
	c0-1.452-1.179-2.635-2.624-2.635H87.827c-1.457,0-2.63,1.183-2.63,2.635c0,1.449,1.174,2.631,2.63,2.631h12.676
	C101.948,382.902,103.126,381.72,103.126,380.271z"/>
<path opacity="0.15" fill="#C5C5C9" d="M556.905,74.014c0.27,0.95,0.181,2.021-0.341,2.963c-1.049,1.887-3.426,2.574-5.319,1.523
	c-1.886-1.044-2.572-3.43-1.529-5.317c0.522-0.942,1.375-1.589,2.33-1.862l-5.57-3.088c0.275,0.955,0.179,2.022-0.343,2.963
	c-1.05,1.886-3.429,2.572-5.322,1.522c-1.888-1.046-2.567-3.426-1.523-5.315c0.521-0.942,1.377-1.587,2.332-1.86l-5.647-3.127
	c0.278,0.956,0.183,2.021-0.34,2.962c-1.047,1.889-3.429,2.573-5.316,1.526c-1.893-1.046-2.573-3.428-1.528-5.317
	c0.522-0.94,1.379-1.586,2.334-1.86l-5.579-3.09c0.271,0.952,0.18,2.02-0.342,2.962c-1.048,1.888-3.427,2.575-5.317,1.525
	c-1.894-1.049-2.576-3.431-1.532-5.319c0.521-0.942,1.379-1.585,2.332-1.857l-5.576-3.091c0.271,0.952,0.185,2.023-0.337,2.966
	c-1.046,1.888-3.434,2.568-5.322,1.521c-1.888-1.045-2.569-3.429-1.529-5.315c0.524-0.943,1.378-1.589,2.333-1.861l-5.576-3.09
	c0.273,0.954,0.18,2.02-0.343,2.962c-0.118,0.214-0.254,0.413-0.405,0.595v18.832l43.225,23.95c0.438,0.242,0.594,0.792,0.355,1.221
	c-0.241,0.434-0.786,0.588-1.223,0.349l0,0l-42.357-23.469v9.023l38.532,21.349c0.436,0.241,0.596,0.786,0.356,1.219
	c-0.24,0.43-0.784,0.585-1.224,0.345l0,0l-37.665-20.87v9.021l33.842,18.75c0.436,0.243,0.597,0.786,0.353,1.221
	c-0.237,0.43-0.784,0.587-1.223,0.345l0,0l-32.972-18.269v9.025l29.148,16.149c0.437,0.243,0.594,0.786,0.354,1.221
	c-0.237,0.429-0.783,0.584-1.221,0.343l0,0l-28.281-15.67v21.728l15.122,8.378c4.674,2.592,10.57,0.901,13.163-3.776l29.126-52.577
	L556.905,74.014z M503.927,48.632c-1.177,1.426-3.236,1.857-4.915,0.928c-1.888-1.046-2.566-3.425-1.52-5.314
	c0.518-0.941,1.371-1.59,2.323-1.862l-4.814-2.668L465.872,92.29c-2.591,4.68-0.9,10.573,3.776,13.164l34.278,18.991v-21.728
	l-29.15-16.151c-0.435-0.241-0.592-0.785-0.354-1.215c0.241-0.434,0.785-0.59,1.221-0.348l28.284,15.672v-9.025l-24.457-13.55
	c-0.437-0.242-0.594-0.79-0.354-1.22c0.242-0.433,0.784-0.588,1.22-0.347l23.591,13.069V80.58l-19.766-10.952
	c-0.438-0.241-0.592-0.785-0.354-1.217c0.239-0.432,0.783-0.586,1.22-0.345l18.899,10.471v-9.023l-15.076-8.352
	c-0.434-0.243-0.59-0.786-0.351-1.223c0.24-0.428,0.784-0.587,1.221-0.347l14.206,7.871V48.632z"/>
<path opacity="0.15" fill="#C5C5C9" d="M204.673,521.381l10.992-5.143c5.332-2.494,7.701-8.967,5.187-14.342l-16.179-34.578v18.984
	c0.175,0.158,0.322,0.352,0.425,0.57l2.409,5.15l0,0c0.436,0.932,0.072,1.924-0.773,2.322l-2.061,0.963v4.428l3.761-1.76
	c0.846-0.395,1.841-0.039,2.237,0.809l2.448,5.232l0,0c0.394,0.842,0.031,1.836-0.815,2.23l-7.631,3.57V521.381z M196.298,525.299
	l8.375-3.918v-11.563l-3.763,1.762c-0.848,0.396-1.838,0.037-2.234-0.805l-2.378-5.084V525.299L196.298,525.299z M204.673,467.318
	l-8.375-17.9v25.111l0.957-0.447c0.846-0.395,1.878,0.043,2.273,0.885l2.412,5.156l0,0c0.395,0.842,0.069,1.92-0.775,2.313
	l-4.866,2.277v4.328l6.527-3.057c0.623-0.291,1.353-0.127,1.848,0.318V467.318L204.673,467.318z M204.673,495.309v4.428
	l-7.632,3.572c-0.324,0.15-0.577,0.389-0.743,0.672v-4.752L204.673,495.309z M192.642,527.01l3.657-1.711v-19.607l-0.069-0.146
	c-0.246-0.527-0.201-1.105,0.069-1.564v-4.752l-0.959,0.447c-0.846,0.395-1.837,0.035-2.274-0.896l-0.424-0.906v9.688l2.318,4.955
	l0,0c0.393,0.84,0.034,1.832-0.812,2.229l-1.506,0.705V527.01L192.642,527.01z M196.298,449.418l-0.073-0.156
	c-0.826-1.768-2.082-3.205-3.584-4.25v14.326l1.671,3.57l0,0c1.06,2.266,0.309,4.916-1.671,6.369v6.963l3.657-1.711V449.418
	L196.298,449.418z M196.298,484.713v4.328l-3.657,1.711v-4.328L196.298,484.713z M186.516,529.877l6.125-2.867v-11.561l-6.125,2.863
	V529.877L186.516,529.877z M192.642,445.012c-1.793-1.248-3.938-1.938-6.125-1.961v9c1.729,0.199,3.301,1.25,4.08,2.916l2.046,4.371
	V445.012L192.642,445.012z M192.642,469.277v6.963l-6.125,2.867v-6.852l5.212-2.438C192.057,469.664,192.361,469.48,192.642,469.277
	L192.642,469.277z M192.642,486.424v4.328l-1.212,0.564c-0.845,0.396-1.169,1.471-0.773,2.314l1.985,4.242v9.688l-0.13-0.275
	c-0.398-0.852-1.388-1.209-2.232-0.813l-3.763,1.76v-4.43l2.062-0.963c0.844-0.396,1.206-1.389,0.77-2.32l0,0l-2.409-5.15
	c-0.104-0.219-0.249-0.41-0.423-0.568v-10.02l0.98,2.1c0.395,0.842,1.426,1.285,2.271,0.887L192.642,486.424z M181.891,444.051
	l-3.751,1.754v9.287l5.495-2.57c0.937-0.439,1.932-0.582,2.881-0.471v-9C184.958,443.033,183.38,443.354,181.891,444.051
	L181.891,444.051z M178.14,533.795l8.376-3.918v-11.564l-3.765,1.764c-0.848,0.396-1.835,0.035-2.23-0.809l-2.381-5.09V533.795
	L178.14,533.795z M186.516,472.256v6.852l-0.654,0.305c-0.848,0.396-1.169,1.471-0.776,2.311l1.43,3.059v10.02
	c-0.496-0.447-1.223-0.613-1.848-0.32l-6.529,3.055v-4.326l4.868-2.279c0.846-0.395,1.166-1.469,0.77-2.311l0,0l-2.411-5.156
	c-0.393-0.84-1.422-1.281-2.268-0.887l-0.959,0.449v-6.85L186.516,472.256L186.516,472.256z M186.516,503.803v4.43l-7.635,3.572
	c-0.323,0.152-0.576,0.391-0.742,0.674v-4.756L186.516,503.803z M178.14,445.805l-9.862,4.615v9.287l9.862-4.615V445.805
	L178.14,445.805z M168.278,538.195c0.652-0.166,1.296-0.393,1.927-0.688l7.935-3.713v-19.617l-0.066-0.139
	c-0.245-0.523-0.203-1.104,0.066-1.561v-4.756l-0.96,0.449c-0.845,0.395-1.835,0.035-2.27-0.896l-2.409-5.15
	c-0.395-0.844-0.077-1.914,0.77-2.311l4.869-2.279v-4.326l-6.529,3.055c-0.848,0.398-1.875-0.045-2.271-0.889l-1.062-2.271v10.229
	c0.175,0.158,0.321,0.352,0.422,0.57l2.41,5.15l0,0c0.437,0.932,0.075,1.924-0.768,2.316l-2.065,0.967v4.43l3.765-1.762
	c0.842-0.395,1.836-0.037,2.233,0.811l2.447,5.232l0,0c0.395,0.844,0.033,1.834-0.811,2.229l-7.634,3.57V538.195L168.278,538.195z
	 M178.14,476.176v6.85l-9.862,4.613v-6.85L178.14,476.176z M168.278,450.42l-11.161,5.223v9.285l11.161-5.221V450.42L168.278,450.42
	z M157.117,534.334c2.606,3.365,7.009,4.91,11.161,3.861v-11.35l-3.763,1.762c-0.844,0.395-1.839,0.039-2.231-0.803l-2.449-5.232
	c-0.397-0.85-0.034-1.84,0.811-2.234l7.633-3.572v-4.43l-9.333,4.367c-0.623,0.293-1.327,0.172-1.828-0.283V534.334L157.117,534.334
	z M168.278,480.789v6.85l-0.577,0.271c-0.846,0.396-1.165,1.467-0.772,2.307l1.349,2.887v10.229
	c-0.495-0.447-1.222-0.609-1.845-0.318l-9.315,4.359v-4.326l7.655-3.582c0.842-0.395,1.165-1.471,0.77-2.313l0,0l-2.411-5.156
	c-0.394-0.842-1.424-1.281-2.269-0.887l-3.745,1.754v-6.852L168.278,480.789z M157.117,455.643l-20.686,9.678
	c-5.395,2.523-7.701,8.967-5.184,14.344l24.626,52.637c0.345,0.736,0.764,1.416,1.243,2.033V516.42
	c-0.179-0.162-0.332-0.367-0.446-0.611l-2.41-5.15c-0.394-0.844-0.071-1.916,0.774-2.313l2.082-0.973v-4.326l-3.743,1.75
	c-0.845,0.396-1.877-0.047-2.272-0.889l-2.413-5.156c-0.393-0.842-0.069-1.914,0.776-2.311l7.651-3.578v-6.852l-7.374,3.451
	c-2.64,1.234-5.82,0.178-7.031-2.41l-3.716-7.943c-1.209-2.58,0.015-5.709,2.655-6.943l15.466-7.238V455.643z"/>
<g opacity="0.15">
	<rect x="487.318" y="348.531" fill-rule="evenodd" clip-rule="evenodd" fill="#C5C5C9" width="115.773" height="6.03"/>
	<rect x="492.142" y="336.874" fill-rule="evenodd" clip-rule="evenodd" fill="#C5C5C9" width="106.128" height="6.03"/>
	<rect x="533.948" y="324.814" fill-rule="evenodd" clip-rule="evenodd" fill="#C5C5C9" width="22.512" height="6.03"/>
	<rect x="537.97" y="281.801" fill-rule="evenodd" clip-rule="evenodd" fill="#C5C5C9" width="14.472" height="47.033"/>
	<rect x="533.948" y="279.389" fill-rule="evenodd" clip-rule="evenodd" fill="#C5C5C9" width="22.512" height="6.03"/>
	<g>
		<rect x="567.917" y="324.814" fill-rule="evenodd" clip-rule="evenodd" fill="#C5C5C9" width="22.512" height="6.03"/>
		<rect x="571.937" y="281.801" fill-rule="evenodd" clip-rule="evenodd" fill="#C5C5C9" width="14.473" height="47.033"/>
		<rect x="567.917" y="279.389" fill-rule="evenodd" clip-rule="evenodd" fill="#C5C5C9" width="22.512" height="6.03"/>
		<rect x="499.981" y="324.814" fill-rule="evenodd" clip-rule="evenodd" fill="#C5C5C9" width="22.51" height="6.03"/>
		<rect x="504.001" y="281.801" fill-rule="evenodd" clip-rule="evenodd" fill="#C5C5C9" width="14.473" height="47.033"/>
		<rect x="499.981" y="279.389" fill-rule="evenodd" clip-rule="evenodd" fill="#C5C5C9" width="22.51" height="6.03"/>
	</g>
	<rect x="492.142" y="266.525" fill-rule="evenodd" clip-rule="evenodd" fill="#C5C5C9" width="106.128" height="6.03"/>
	<polygon fill-rule="evenodd" clip-rule="evenodd" fill="#C5C5C9" points="545.206,232.758 598.27,266.525 492.142,266.525 	"/>
</g>
<path opacity="0.15" fill-rule="evenodd" clip-rule="evenodd" fill="#C5C5C9" d="M232.415,274.039l114.584,37.512l-114.584,37.513
	v-14.705c9.95,0,18.015-6.013,18.015-13.437v-22.598h4.582v-9.581h-4.582h-9.996h-4.583v9.581h4.583v22.598
	c0,2.7-3.59,4.888-8.02,4.888V274.039z M199.417,263.236l32.998,10.803v51.771h-0.001c-4.428,0-8.018-2.188-8.018-4.888v-22.598
	h4.583v-9.581h-4.583h-9.997h-4.583v9.581h4.583v22.598c0,7.424,8.065,13.437,18.015,13.437h0.001v14.705l-32.998,10.803V263.236z"
	/>
<path opacity="0.15" fill="#C5C5C9" d="M540.357,420.412c-0.395-0.102-0.789-0.152-1.176-0.152v9.33
	c2.07,0.002,3.967-1.389,4.512-3.49C544.344,423.607,542.848,421.061,540.357,420.412L540.357,420.412z M539.182,416.367v-26.624
	c1.999-1.469,4.397-2.17,6.824-2.207l4.02-15.441c0.502-1.934,2.479-3.093,4.411-2.59s3.092,2.479,2.59,4.413l-4.02,15.441
	c4.222,2.438,7.036,7.174,5.402,13.447c0,0-1.317,5.07-2.013,7.732l0,0c-0.925,3.553,3.655,5.691,3.655,5.691l-1.358,5.215
	L539.182,416.367z M539.182,420.26c-2.076,0-3.967,1.393-4.514,3.492c-0.648,2.492,0.848,5.039,3.341,5.688
	c0.393,0.102,0.783,0.15,1.173,0.15V420.26L539.182,420.26z M539.182,389.744v26.624l-13.783-3.588l1.354-5.217
	c0,0,5.033,0.402,5.967-3.186c0.8-3.072,2.012-7.733,2.012-7.733C535.552,393.494,537.161,391.228,539.182,389.744z"/>
<path opacity="0.15" fill-rule="evenodd" clip-rule="evenodd" fill="#C5C5C9" d="M272.059,162.099h20.534v3.698h-20.534V162.099
	L272.059,162.099z M272.059,176.895h20.534v58.725c0,6.358-5.201,11.56-11.56,11.56h-8.975v-18.134
	c0.447-0.108,0.864-0.242,1.252-0.397c2.418-1.003,4.324-2.69,5.722-5.061c1.789-3.033,2.684-6.347,2.684-9.93
	c0-5.319-1.836-7.979-5.513-7.979c-1.151,0-2.426,0.438-3.828,1.298l2.233-10.496l-2.55,0.345V176.895L272.059,176.895z
	 M272.059,224.845c1.176-0.288,2.294-1.557,3.351-3.809c1.066-2.418,1.594-4.773,1.594-7.083c0-2.31-0.468-3.833-1.391-4.58
	c-0.32-0.255-0.622-0.39-0.911-0.39c-0.59,0-1.165,0.072-1.732,0.219c-0.373,0.098-0.678,0.221-0.911,0.374V224.845z
	 M263.116,162.099h8.943v3.698h-8.943V162.099L263.116,162.099z M263.116,176.895h8.943v19.932l-4.347,0.588l-4.597,21.517v-20.754
	l0.716-3.359c-0.217-0.11-0.455-0.205-0.716-0.288V176.895L263.116,176.895z M272.059,247.18h-8.943v-20.544
	c0.246,0.453,0.555,0.856,0.928,1.213c1.096,1.049,2.588,1.57,4.5,1.57c1.326,0,2.497-0.124,3.516-0.372V247.18L272.059,247.18z
	 M272.059,209.577c-0.116,0.077-0.216,0.163-0.295,0.255l-2.55,11.842c-0.095,0.396-0.141,0.754-0.141,1.073
	c0,1.438,0.825,2.161,2.465,2.161c0.176,0,0.349-0.021,0.521-0.063V209.577z M252.32,162.099h10.795v3.698H252.32V162.099
	L252.32,162.099z M252.32,176.895h10.795v17.636c-0.791-0.251-1.78-0.374-2.968-0.374c-2.518,0-5.125,1.19-7.827,3.579V176.895
	L252.32,176.895z M263.116,247.18H252.32v-18.033h4.203l6.592-30.969v20.754l-0.396,1.856c-0.209,0.94-0.317,1.828-0.317,2.667
	c0,1.243,0.237,2.302,0.713,3.18V247.18L263.116,247.18z M252.32,217.246l1.063-5.025c-0.354-0.162-0.71-0.311-1.063-0.45V217.246
	L252.32,217.246z M252.32,209.608c0.521,0.172,1.018,0.353,1.491,0.542l2.712-12.689c-1.368,0.744-2.769,2.073-4.203,3.988V209.608z
	 M247.899,162.099h4.421v3.698h-4.421V162.099L247.899,162.099z M247.899,176.895h4.421v20.841c-0.119,0.105-0.24,0.214-0.36,0.325
	c-1.393,1.277-2.747,2.721-4.061,4.327V176.895L247.899,176.895z M252.32,247.18h-4.421v-36.563
	c1.479,0.197,2.954,0.581,4.421,1.154v5.475l-2.516,11.901h2.516V247.18L252.32,247.18z M252.32,201.45
	c-1.369,1.828-2.77,4.19-4.203,7.083c1.538,0.298,2.938,0.659,4.203,1.075V201.45z M235.256,162.099h12.644v3.698h-14.03
	c-3.052,0-5.549,2.498-5.549,5.549v0.001c0,3.052,2.497,5.548,5.549,5.548h14.03v25.493c-1.365,1.668-2.688,3.513-3.972,5.533
	c-1.003-0.094-1.819-0.141-2.442-0.141c-2.698,0-4.967,0.56-6.81,1.688c-1.805,1.12-2.707,2.488-2.707,4.097
	c0,0.824,0.264,1.47,0.809,1.952c0.535,0.474,1.313,0.716,2.333,0.716c0.558,0,1.096-0.164,1.608-0.49
	c0.506-0.326,0.763-0.715,0.763-1.174s-0.07-0.841-0.21-1.151c-0.133-0.312-0.272-0.466-0.405-0.466
	c0.318-0.808,0.94-1.383,1.874-1.74c0.934-0.359,2.132-0.585,3.593-0.677c-1.018,1.78-1.953,3.576-2.808,5.403
	c-2.699,5.832-4.051,10.356-4.051,13.575c0,2.124,0.785,3.586,2.372,4.371c0.739,0.381,2.03,0.576,3.872,0.576
	c-0.428-0.598-0.638-1.479-0.638-2.66c0-1.174,0.148-2.589,0.452-4.246c0.94-5.162,2.814-10.838,5.605-17.02
	c0.254,0.022,0.508,0.051,0.761,0.084v36.563h-12.644c-6.358,0-11.559-5.202-11.559-11.56v-61.962
	C223.697,167.299,228.897,162.099,235.256,162.099z"/>
<path opacity="0.15" fill-rule="evenodd" clip-rule="evenodd" fill="#C5C5C9" d="M457.485,340.071v-26.499
	c0.74,1.115,1.175,2.448,1.175,3.88v22.619H457.485L457.485,340.071z M457.485,297.248v-17.524c0.162-0.125,0.333-0.229,0.513-0.301
	l2.604-1.062c0.926-0.376,1.686,0.197,1.686,1.278v13.781c0,1.082-0.76,2.274-1.686,2.652l-2.604,1.061
	C457.818,297.205,457.647,297.242,457.485,297.248z M457.485,279.724v17.524c-0.677,0.023-1.173-0.52-1.173-1.393v-13.781
	C456.313,281.201,456.809,280.256,457.485,279.724L457.485,279.724z M457.485,313.572c-1.264-1.902-3.426-3.161-5.867-3.161v-38.837
	h-10.15v45.238c3.83,0,6.935,3.105,6.935,6.936c0,3.829-3.104,6.935-6.935,6.935v9.39h16.018V313.572L457.485,313.572z
	 M441.468,357.141v-12.376h6.829v7.042c0,2.934-2.4,5.334-5.335,5.334H441.468L441.468,357.141z M441.468,269.013v-11.566
	c6.324,3.104,10.15,7.146,10.15,11.566H441.468z M441.468,257.447v11.566h-5.919v-2.774l0,0c1.828,0,3.309-1.481,3.309-3.307
	c0-1.827-1.48-3.308-3.309-3.308l0,0v-4.565C437.699,255.771,439.683,256.572,441.468,257.447L441.468,257.447z M441.468,271.573
	v45.238l0,0c-2.506,0-4.7,1.328-5.919,3.32V299.74h2.626v-20.057h-2.626v-8.11H441.468L441.468,271.573z M441.468,330.681v9.39
	h-5.919v-12.709C436.768,329.352,438.962,330.681,441.468,330.681L441.468,330.681L441.468,330.681z M441.468,344.765v12.376h-1.494
	c-1.837,0-3.464-0.94-4.425-2.364v-10.012H441.468z M425.865,259.624c1.825,0,3.307,1.481,3.307,3.308
	c0,1.826-1.481,3.307-3.307,3.307c-0.32,0-0.629-0.044-0.921-0.129v2.904h10.604v-2.774c-1.827,0-3.308-1.481-3.308-3.307
	c0-1.827,1.48-3.307,3.308-3.308v-4.565c-3.195-1.058-6.762-1.924-10.604-2.557v7.253
	C425.236,259.67,425.545,259.624,425.865,259.624L425.865,259.624z M435.549,271.573v8.11h-10.604v-8.11H435.549L435.549,271.573z
	 M435.549,299.74v20.392c-0.645,1.054-1.016,2.291-1.016,3.615s0.371,2.563,1.016,3.615v12.709h-10.604V299.74H435.549
	L435.549,299.74z M435.549,344.765v10.012c-0.575-0.852-0.912-1.872-0.912-2.97v-7.042H435.549z M424.944,266.109
	c-1.38-0.397-2.387-1.67-2.387-3.178s1.007-2.78,2.387-3.178v-7.253c-4.697-0.773-9.807-1.198-15.15-1.198l-0.425,0.002v17.708
	h15.575V266.109L424.944,266.109z M424.944,271.573v8.11h-13.23v20.057h13.23v40.331h-15.575v-8.748h15.149v-4.695h-15.149v-3.202
	h15.149v-4.692h-15.149v-3.201h15.149v-4.695h-15.149v-39.263H424.944z M409.369,251.305v17.708h-14.725v-2.904
	c1.378-0.399,2.388-1.671,2.388-3.178c0-1.507-1.01-2.779-2.388-3.177v-7.253C399.218,251.749,404.18,251.326,409.369,251.305
	L409.369,251.305z M409.369,271.573v39.263h-14.725V299.74h13.231v-20.057h-13.231v-8.11H409.369L409.369,271.573z M409.369,315.532
	v3.201h-14.725v-3.201H409.369L409.369,315.532z M409.369,323.425v3.202h-14.725v-3.202H409.369L409.369,323.425z M409.369,331.323
	v8.748h-14.725v-8.748H409.369z M394.644,252.501v7.253c-0.292-0.084-0.599-0.131-0.919-0.131c-1.826,0-3.307,1.481-3.307,3.308
	c0,1.826,1.481,3.307,3.307,3.307c0.32,0,0.628-0.045,0.919-0.129v2.904h-10.604v-2.774c1.826,0,3.308-1.481,3.308-3.307
	c0-1.827-1.482-3.308-3.308-3.308v-4.565C387.235,254,390.801,253.134,394.644,252.501L394.644,252.501z M394.644,271.573v8.11
	h-10.604v-8.11H394.644L394.644,271.573z M394.644,299.74v11.097h-0.427v4.695h0.427v3.201h-0.427v4.692h0.427v3.202h-0.427v4.695
	h0.427v8.748h-10.604v-12.708c0.645-1.053,1.017-2.29,1.017-3.616c0-1.324-0.373-2.563-1.017-3.617v-20.39H394.644L394.644,299.74z
	 M384.041,354.78v-10.015h0.91v7.042C384.95,352.905,384.616,353.929,384.041,354.78z M384.041,255.058v4.565
	c-1.828,0-3.309,1.481-3.309,3.308c0,1.826,1.481,3.307,3.309,3.307v2.774h-5.918v-11.566
	C379.907,256.572,381.887,255.771,384.041,255.058L384.041,255.058z M384.041,271.573v8.11h-2.625v20.057h2.625v20.39
	c-1.219-1.99-3.414-3.318-5.918-3.318v-45.238H384.041L384.041,271.573z M384.041,327.363v12.708h-5.918v-9.39
	C380.627,330.681,382.822,329.352,384.041,327.363L384.041,327.363z M384.041,344.765v10.015c-0.961,1.422-2.588,2.361-4.422,2.361
	h-1.496v-12.376H384.041z M378.122,257.447v11.566h-10.151C367.971,264.592,371.797,260.549,378.122,257.447L378.122,257.447z
	 M378.122,271.573v45.238c-3.831,0-6.934,3.105-6.934,6.936c0,3.829,3.103,6.935,6.934,6.935v9.39h-16.02v-26.499
	c1.264-1.902,3.426-3.161,5.869-3.161v-38.837H378.122L378.122,271.573z M378.122,344.765v12.376h-1.494
	c-2.933,0-5.335-2.4-5.335-5.334v-7.042H378.122L378.122,344.765z M362.102,297.248c0.679,0.024,1.174-0.52,1.174-1.393v-13.781
	c0-0.874-0.495-1.82-1.174-2.351V297.248z M362.102,279.724v17.524c-0.162-0.006-0.334-0.043-0.511-0.115l-2.604-1.061
	c-0.927-0.378-1.686-1.57-1.686-2.652v-13.781c0-1.082,0.758-1.654,1.686-1.278l2.604,1.062
	C361.768,279.495,361.94,279.598,362.102,279.724L362.102,279.724z M362.102,313.572v26.499h-1.173v-22.619
	C360.929,316.02,361.361,314.687,362.102,313.572z"/>
<path opacity="0.15" fill="#C5C5C9" d="M361.264,477.643c5.246,0,9.5-4.256,9.5-9.502v-71.226c0-5.241-4.255-9.495-9.5-9.495
	h-18.974v6.386h13.617c4.268,0,7.738,3.464,7.738,7.744v61.959c0,4.285-3.47,7.746-7.738,7.746h-13.617v6.389H361.264
	L361.264,477.643z M342.291,465.666v-2.305h9.759v-3.848h-9.759v-60.118h9.97c3.422,0,6.198,2.774,6.198,6.192v53.881
	c0,3.422-2.776,6.197-6.198,6.197H342.291z M342.291,387.419h-14.848v6.386h14.848V387.419L342.291,387.419z M327.443,477.643
	h14.848v-6.389h-14.848V477.643L327.443,477.643z M342.291,399.396v60.118h-9.761v3.848h9.761v2.305h-14.848v-23.918
	c0.286-0.049,0.574-0.111,0.868-0.186c1.788-0.459,3.305-1.338,4.539-2.631s2.101-2.789,2.592-4.488
	c0.218-0.791,0.345-1.584,0.37-2.377s-0.079-1.658-0.317-2.592c-0.242-0.941-0.824-1.82-1.749-2.646
	c-0.923-0.828-2.184-1.281-3.775-1.354c1.444-1.23,2.407-2.535,2.914-3.922c0.503-1.387,0.588-2.73,0.251-4.043
	c-0.335-1.307-1.202-2.299-2.599-2.967c-0.88-0.422-1.91-0.602-3.093-0.539v-14.608H342.291L342.291,399.396z M327.443,439.107
	c0.083-0.01,0.163-0.025,0.246-0.047c1.225-0.314,2.075-1.156,2.551-2.535c0.476-1.371,0.511-2.834,0.115-4.385
	c-0.487-1.898-1.455-3.314-2.911-4.242V439.107L327.443,439.107z M327.443,423.984c0.819-1.268,1.235-2.74,1.248-4.42
	c0.018-0.605-0.056-1.213-0.212-1.822c-0.155-0.605-0.431-1.104-0.838-1.486c-0.064-0.061-0.13-0.115-0.198-0.162V423.984z
	 M327.443,387.419h-16.068v6.386h16.068V387.419L327.443,387.419z M311.375,477.643h16.068v-6.389h-16.068V477.643L311.375,477.643z
	 M327.443,399.396v14.608c-0.693,0.037-1.439,0.158-2.237,0.363c-2.154,0.551-3.79,1.719-4.911,3.504
	c-1.121,1.785-1.46,3.549-1.017,5.285c0.518,2.016,1.91,3.348,4.178,3.986c-1.853,1.105-3.147,2.502-3.862,4.201
	c-0.723,1.693-0.851,3.447-0.389,5.252c0.465,1.814,1.522,3.238,3.183,4.281c1.446,0.912,3.13,1.201,5.056,0.871v23.918h-16.068
	v-22.992l0.44-0.111l-0.164-4.525l4.455-1.143l-0.196-4.1l-4.425,1.133l-0.11-3.576v-30.956H327.443L327.443,399.396z
	 M327.443,416.094c-0.367-0.254-0.795-0.32-1.281-0.197c-1.093,0.281-1.851,0.963-2.292,2.049c-0.435,1.082-0.521,2.119-0.268,3.105
	c0.49,1.918,1.488,3.254,3.002,4.016c0.315-0.342,0.595-0.703,0.838-1.082V416.094L327.443,416.094z M327.443,427.898
	c-0.196-0.125-0.402-0.242-0.617-0.352c-1.717,1.951-2.567,4.186-2.563,6.717c0.01,0.734,0.082,1.377,0.224,1.936
	c0.275,1.074,0.707,1.865,1.288,2.367c0.512,0.447,1.073,0.627,1.669,0.541V427.898z M311.375,387.419h-19.292v6.386h19.292V387.419
	L311.375,387.419z M292.083,477.643h19.292v-6.389h-19.292V477.643L292.083,477.643z M311.375,399.396v30.956l-0.029-0.926
	l-3.941,1.01l0.15,4.5l-4.455,1.141l0.162,4.109l4.458-1.143l0.146,4.531l3.509-0.9v22.992h-19.292v-14.885
	c0.395-0.063,0.806-0.148,1.233-0.256c2.526-0.648,4.468-2.221,5.819-4.729c1.358-2.5,1.649-5.254,0.879-8.264
	c-0.393-1.531-1.093-2.721-2.1-3.576c-0.51-0.451-1.112-0.768-1.794-0.965c-0.688-0.193-1.572-0.146-2.659,0.131
	c-0.491,0.125-0.948,0.313-1.379,0.564v-8.609c0.144-0.061,0.289-0.111,0.438-0.148c0.5-0.129,0.964-0.031,1.396,0.279
	c0.434,0.311,0.708,0.703,0.827,1.176c0.122,0.469,0.042,0.93-0.247,1.375c1.059-0.314,1.775-0.771,2.158-1.365
	c0.379-0.598,0.483-1.23,0.31-1.904c-0.172-0.674-0.694-1.209-1.563-1.604c-0.865-0.391-1.916-0.432-3.142-0.119l-0.175,0.047
	v-23.418H311.375L311.375,399.396z M292.083,447.822c0.275,0.01,0.566-0.023,0.873-0.102c1.343-0.344,2.315-1.404,2.925-3.18
	c0.643-1.811,0.758-3.543,0.333-5.199c-0.623-2.426-1.538-3.486-2.751-3.176c-0.54,0.139-1,0.443-1.379,0.91V447.822z
	 M292.083,387.419H261.49c-5.25,0-9.502,4.254-9.502,9.495v71.226c0,5.246,4.252,9.502,9.502,9.502h30.593v-6.389h-25.237l0,0
	c-4.275,0-7.741-3.461-7.741-7.746v-61.959c0-4.28,3.466-7.744,7.741-7.744h25.237V387.419L292.083,387.419z M292.083,399.396
	v23.418c-2.414,0.656-4.301,1.963-5.662,3.912c-1.399,2.004-2.255,4.508-2.574,7.516c-0.141,1.473-0.148,3.207-0.029,5.195
	c0.125,1.984,0.386,3.754,0.783,5.307l0.163,0.633c0.236,0.93,0.554,1.781,0.959,2.564c1.208,2.361,3.328,3.309,6.36,2.84v14.885
	h-21.59c-3.423,0-6.197-2.775-6.197-6.197v-53.881c0-3.418,2.774-6.192,6.197-6.192H292.083L292.083,399.396z M292.083,425.078
	v8.609c-0.527,0.307-1.012,0.709-1.452,1.213c-0.796,0.902-1.055,1.896-0.775,2.99c0.149,0.586,0.551,1.156,1.186,1.705
	c0.22-1.096,0.567-1.936,1.041-2.52v10.746c-0.408-0.02-0.785-0.137-1.129-0.357c-0.576-0.359-1.044-1.254-1.412-2.682
	c-0.18-0.703-0.408-1.98-0.688-3.84c-0.274-1.855-0.414-3.682-0.411-5.482c-0.025-3.381,0.367-5.906,1.168-7.582
	C290.314,426.424,291.136,425.49,292.083,425.078z"/>
<g opacity="0.15">
	<path fill="#C5C5C9" d="M331.742,255.656c-3.036,0-5.804,1.099-7.9,2.905c-2.099-1.807-4.867-2.905-7.901-2.905
		c-6.552,0-11.865,5.117-11.865,11.431c0,7.227,5.986,18.324,20.385,18.324c14.829,0,19.143-11.744,19.143-18.324
		C343.604,260.773,338.293,255.656,331.742,255.656z"/>
	<path fill="#C5C5C9" d="M324.049,261.604c-2.295-4.697-0.868-9.984,2.817-13.67l5.636,1.043
		C327.214,251.899,324.016,254.959,324.049,261.604z"/>
</g>
<path opacity="0.15" fill="#C5C5C9" d="M295.093,530.518l6.413,9.57l-0.265,12.357l-6.148-2.379v-1l1.877,0.727l3.444-2.305
	l0.153-7.125l0,0l-0.354-0.523c-0.641-0.957-1.938-1.215-2.896-0.574c-0.829,0.555-1.132,1.6-0.786,2.49
	c-0.394-0.375-0.913-0.574-1.44-0.574V530.518z M289.715,547.986l-16.613-24.803c-0.656,0.027-1.314-0.27-1.703-0.855l-0.146-0.217
	v-1.771l0.482,0.719c0.511,0.766,1.549,0.967,2.312,0.457l2.814-1.885l0,0c-0.654,0.129-1.349-0.137-1.743-0.723l-3.865-5.77v-7.633
	l4.446-2.979c0.821-0.295,1.767-0.014,2.274,0.744l6.774,10.113c0.395,0.586,0.419,1.307,0.145,1.902l10.202,15.23v10.664
	c-0.399,0-0.803,0.113-1.159,0.352c-0.83,0.553-1.13,1.6-0.785,2.492c-0.691-0.66-1.774-0.779-2.601-0.225
	c-0.958,0.641-1.215,1.939-0.574,2.9l0.352,0.521l4.767,1.844v1L289.715,547.986L289.715,547.986z M271.252,496.695v7.83
	l3.436-3.504l-1.737-2.594C272.482,497.729,271.904,497.148,271.252,496.695z M271.252,522.111l-6.63-9.896
	c-0.506-0.758-0.408-1.74,0.181-2.387l-2.75-4.1c-2.014-3.012-1.208-7.09,1.802-9.105c2.304-1.545,5.243-1.428,7.397,0.072v7.83
	l-2.806,2.861l2.806-1.881v7.633l-2.052-3.063c-0.391-0.588-0.37-1.332-0.004-1.887l-2.813,1.885
	c-0.766,0.512-0.97,1.549-0.457,2.314l5.326,7.951V522.111z"/>
<path opacity="0.15" fill="#C5C5C9" d="M619.01,231.219c0.878-1.87,1.369-3.959,1.369-6.161c0-2.204-0.494-4.292-1.369-6.163
	V231.219L619.01,231.219z M619.01,240.049v-3.272c0.336,0.005,0.676,0.136,0.938,0.394l0,0l4.586,4.596
	c0.526,0.524,0.526,1.38,0,1.904c-0.525,0.527-1.385,0.527-1.906,0L619.01,240.049L619.01,240.049z M619.01,213.37v-3.273
	l3.618-3.621c0.521-0.526,1.381-0.526,1.906,0c0.526,0.53,0.526,1.38,0,1.908l-4.586,4.591l0,0
	C619.686,213.234,619.346,213.365,619.01,213.37L619.01,213.37z M630.889,223.727L630.889,223.727h-6.496
	c-0.742,0-1.345,0.607-1.345,1.351c0,0.742,0.603,1.347,1.345,1.347h6.496c0.745,0,1.347-0.605,1.347-1.347
	C632.235,224.333,631.634,223.727,630.889,223.727z M605.834,255.849h1.021c3.973-0.003,7.187-3.224,7.188-7.191v-11.602
	c2.134-1.46,3.857-3.476,4.967-5.837v-12.324c-2.322-4.948-7.35-8.375-13.176-8.377v2.998c3.196,0,6.066,1.291,8.165,3.381
	c2.093,2.088,3.374,4.967,3.374,8.161c0,4.205-2.247,7.875-5.604,9.898l0,0c-0.451,0.267-0.727,0.76-0.727,1.285v6.645h-5.208
	V255.849L605.834,255.849z M619.01,210.097v3.273c-0.351,0.005-0.704-0.125-0.972-0.395c-0.53-0.524-0.53-1.381,0-1.907
	L619.01,210.097L619.01,210.097z M619.01,236.777v3.272l-0.972-0.971c-0.53-0.526-0.53-1.378,0-1.907
	C618.306,236.904,618.659,236.772,619.01,236.777L619.01,236.777z M605.834,207.96v-9.185c0.035-0.002,0.071-0.004,0.106-0.004
	c0.742,0,1.345,0.605,1.345,1.354v6.489c0,0.746-0.603,1.35-1.345,1.35l0,0C605.905,207.965,605.869,207.963,605.834,207.96z
	 M605.834,210.518c-5.743,0.001-10.706,3.333-13.069,8.171v12.736c1.156,2.367,2.935,4.373,5.121,5.804v11.428
	c0,3.967,3.221,7.188,7.191,7.191h0.757v-12.963h-4.944v-6.499c0-0.537-0.288-1.031-0.762-1.3
	c-3.487-1.987-5.834-5.731-5.834-10.029c0-3.194,1.286-6.073,3.376-8.161c2.102-2.09,4.978-3.381,8.164-3.381l0,0V210.518
	L605.834,210.518L605.834,210.518z M605.834,198.776v9.185c-0.699-0.054-1.246-0.635-1.246-1.345v-6.489
	C604.588,199.412,605.135,198.83,605.834,198.776L605.834,198.776z M592.765,240.152v-3.37c0.384-0.034,0.78,0.096,1.074,0.389
	c0.523,0.529,0.523,1.381,0,1.907L592.765,240.152L592.765,240.152z M592.765,213.366v-3.372l1.074,1.073
	c0.523,0.526,0.523,1.382,0,1.907C593.545,213.269,593.151,213.4,592.765,213.366z M592.765,218.689
	c-0.938,1.924-1.466,4.084-1.466,6.369c0,2.284,0.527,4.445,1.466,6.368V218.689L592.765,218.689z M592.765,209.994v3.372
	c-0.304-0.028-0.6-0.158-0.834-0.391l0,0l-4.588-4.591c-0.529-0.528-0.529-1.377,0-1.908c0.524-0.526,1.38-0.526,1.908,0
	L592.765,209.994L592.765,209.994z M592.765,236.782v3.37l-3.514,3.519c-0.528,0.527-1.384,0.527-1.908,0
	c-0.529-0.523-0.529-1.38,0-1.904l4.588-4.596l0,0C592.165,236.938,592.461,236.81,592.765,236.782L592.765,236.782z
	 M588.825,225.078L588.825,225.078c0-0.744-0.603-1.351-1.342-1.351h-6.495c-0.746,0-1.348,0.607-1.348,1.351
	c0,0.742,0.602,1.347,1.348,1.347h6.495C588.223,226.424,588.825,225.819,588.825,225.078z"/>
<path opacity="0.15" fill-rule="evenodd" clip-rule="evenodd" fill="#C5C5C9" d="M358.386,123.696l6.111-1.97l16.693,51.779
	l-18.631,6.005l-4.172-12.945V123.696L358.386,123.696z M358.386,211.094c5.68-0.026,10.931-1.865,15.206-4.966H361.96v-7.146
	h18.364h14.535h2.837v7.146h-6.462c-4.371,6.796-10.788,12.153-18.38,15.202c8.053,1.392,13.998,4.045,13.998,7.965v5.916h-28.466
	v-5.423c2.926,0,5.299-2.373,5.299-5.298c0-2.927-2.373-5.299-5.299-5.299V211.094z M345.869,127.732l12.518-4.037v42.87
	l-2.466-7.647c-13.338,1.184-23.798,12.386-23.798,26.033c0,14.439,11.704,26.143,26.142,26.143h0.123v8.097
	c-2.926,0-5.298,2.372-5.298,5.299c0,2.925,2.372,5.298,5.298,5.298v5.423h-28.711v-5.916c0-3.919,5.947-6.573,14.001-7.965
	c-14.417-5.787-24.599-19.893-24.599-36.379c0-19.455,14.184-35.596,32.773-38.657L345.869,127.732z"/>
<g opacity="0.15">
	<path fill="#C5C5C9" d="M332.308,118.422c-3.136-7.851-10.675-12.626-18.644-12.629v3.746c6.484,0.002,12.619,3.887,15.171,10.273
		c3.343,8.374-0.733,17.882-9.109,21.231c-1.989,0.794-4.042,1.169-6.063,1.168v3.744c2.484,0.001,5.009-0.46,7.454-1.438
		C331.414,140.404,336.423,128.722,332.308,118.422z M313.665,105.793c-2.48,0-5.001,0.46-7.445,1.438
		c-10.299,4.115-15.311,15.797-11.197,26.095c3.138,7.85,10.674,12.628,18.642,12.63v-3.744
		c-6.481-0.004-12.616-3.892-15.167-10.278l0,0c-3.346-8.373,0.732-17.88,9.109-21.227c1.989-0.793,4.042-1.169,6.058-1.168V105.793
		z"/>
	
		<rect x="285.253" y="126.377" transform="matrix(0.3708 0.9287 -0.9287 0.3708 307.6371 -181.7763)" fill="#C5C5C9" width="5.428" height="19.534"/>
	<path fill="#C5C5C9" d="M271.771,147.29c-2.228,0.891-4.753-0.194-5.643-2.421c-0.89-2.224,0.193-4.75,2.423-5.639l17.133-6.847
		c2.224-0.889,4.751,0.195,5.641,2.418c0.891,2.226-0.195,4.753-2.42,5.644L271.771,147.29z"/>
</g>
<path opacity="0.15" fill="#C5C5C9" d="M306.69,347.642l6.35-1.259c1.103-0.218,2.177,0.362,2.635,1.338l5.978-1.187
	c4.388-0.868,8.655,1.989,9.523,6.375c0.868,4.376-1.988,8.642-6.374,9.512l-3.782,0.748l-4.292-10.136l2.096,10.574
	c-0.054,1.074-0.823,2.02-1.929,2.237l-10.205,2.021v-13.939l6.613-1.309c0.855-0.17,1.693,0.208,2.153,0.889l-0.813-4.101
	c-0.221-1.118-1.306-1.842-2.421-1.62l-5.532,1.097V347.642z M260.793,357.917l35.719-7.076c0.278-0.76,0.93-1.366,1.785-1.534
	l8.393-1.665v1.241l-7.104,1.407c-1.117,0.22-1.841,1.305-1.622,2.421l0.813,4.102l0,0c0.165-0.806,0.794-1.473,1.651-1.646
	l6.262-1.239v13.939l-4.537,0.9c-0.856,0.168-1.689-0.143-2.236-0.741l-36.158,7.166l-2.965-1.311v-1.26l3.101,1.369l0,0
	l0.763-0.153c1.396-0.275,2.306-1.632,2.029-3.027c-0.24-1.208-1.286-2.052-2.467-2.079c1.083-0.476,1.726-1.649,1.487-2.855
	c-0.235-1.208-1.282-2.049-2.465-2.077c1.081-0.476,1.729-1.652,1.489-2.86c-0.277-1.395-1.634-2.305-3.033-2.028l-0.761,0.152
	l-0.143,0.15V357.917z M260.355,358.004l0.438-0.087v1.295l-5.943,6.204l0.995,5.02l4.948,2.186v1.26l-10.992-4.856L260.355,358.004
	z"/>
<g opacity="0.15">
	<g>
		<path fill="#C5C5C9" d="M636.464,431.414l-2.004-1.24l-26.332,42.566c-1.88,3.037-6.132,3.814-9.494,1.734
			c-3.359-2.082-4.558-6.23-2.679-9.266l26.336-42.564l-2.003-1.242L593.62,464.5c-2.501,4.035-0.902,9.549,3.564,12.318
			c4.47,2.764,10.12,1.732,12.619-2.307L636.464,431.414z"/>
		<path fill="#C5C5C9" d="M638.552,433.51c-0.496,0.801-1.552,1.049-2.352,0.551l-18.16-11.234
			c-0.804-0.496-1.051-1.549-0.555-2.352c0.497-0.803,1.55-1.051,2.353-0.555l18.158,11.236
			C638.798,431.652,639.048,432.707,638.552,433.51z"/>
	</g>
	<path fill="#C5C5C9" d="M630.102,433.104l-2.474-1.531l-23.545,38.055c-0.87,1.404-2.44,2.135-4.097,2.094
		c0.091,0.064,0.177,0.135,0.273,0.195c2.329,1.441,5.27,0.902,6.57-1.201L630.102,433.104z"/>
</g>
<path opacity="0.15" fill="#C5C5C9" d="M561.096,195.474c9.368,6.034,7.793,22.397,2.225,25.73
	c-0.778,0.466-1.519,0.794-2.225,1.006v-1.741l0.132-0.063l0,0c1.789-0.896,2.505-3.094,1.596-4.907
	c-0.389-0.771-1.007-1.348-1.728-1.688v-1.275c0.905,0.438,1.99,0.467,2.953-0.015l0,0c1.656-0.83,2.313-2.863,1.475-4.539
	c-0.826-1.646-2.788-2.338-4.428-1.579v-1.39c0.452,0.005,0.908-0.094,1.336-0.309c1.458-0.73,2.037-2.515,1.297-3.987l0,0
	c-0.519-1.038-1.557-1.645-2.633-1.657V195.474z M558.26,194.098c1.041,0.362,1.982,0.827,2.836,1.376v3.588
	c-0.451-0.005-0.908,0.095-1.339,0.311c-0.754,0.377-1.273,1.042-1.497,1.8v-3.309c0.157-0.457,0.166-0.965,0-1.447V194.098
	L558.26,194.098z M561.096,222.21c-1.005,0.303-1.944,0.371-2.836,0.27v-1.955c0.889,0.356,1.911,0.364,2.836-0.056V222.21
	L561.096,222.21z M561.096,205.015v1.39l-0.092,0.044c-1.657,0.831-2.316,2.864-1.474,4.542c0.35,0.702,0.911,1.231,1.565,1.547
	v1.275c-0.87-0.411-1.895-0.474-2.836-0.113v-10.851c0.054,0.173,0.119,0.345,0.201,0.512
	C558.982,204.398,560.019,205.004,561.096,205.015z M556.162,193.546c0.74,0.141,1.44,0.322,2.098,0.551v2.319
	c-0.033-0.098-0.071-0.194-0.121-0.29c-0.389-0.779-1.168-1.234-1.977-1.243V193.546L556.162,193.546z M558.26,222.48
	c-0.726-0.084-1.424-0.281-2.098-0.56v-3.582c0.05,0.14,0.11,0.278,0.176,0.413c0.423,0.84,1.118,1.45,1.922,1.774V222.48
	L558.26,222.48z M558.26,197.864v3.309c-0.154,0.534-0.159,1.115,0,1.676v10.851c-0.109,0.042-0.219,0.089-0.325,0.144
	c-0.858,0.43-1.469,1.159-1.772,2v-16.489c0.34,0.004,0.683-0.071,1.005-0.233C557.702,198.853,558.081,198.394,558.26,197.864z
	 M538.304,196.938c7.581-3.431,13.436-4.236,17.858-3.391v1.338c-0.34-0.005-0.683,0.069-1.002,0.232l0,0
	c-1.094,0.548-1.529,1.887-0.972,2.995c0.39,0.779,1.168,1.234,1.974,1.244v16.489c-0.282,0.784-0.299,1.665,0,2.495v3.582
	c-4.199-1.742-7.453-6.624-11.938-6.232c-2.067,0.18-4.088,0.291-5.921,0.15v-3.454c0.665,0,1.339-0.151,1.974-0.469l0,0
	c2.176-1.091,3.056-3.738,1.966-5.914c-0.772-1.54-2.327-2.43-3.939-2.432V196.938z M530.463,209.137
	c-0.83-6.978,6.348-11.503,6.348-11.503c0.505-0.244,1.002-0.475,1.493-0.697v6.633c-0.665,0-1.342,0.15-1.977,0.468
	c-2.176,1.092-3.053,3.74-1.963,5.914c0.773,1.541,2.327,2.431,3.939,2.432v3.454C534.196,215.526,531.038,213.962,530.463,209.137z
	"/>
<g opacity="0.15">
	<g>
		<path fill="#C5C5C9" d="M187.155,396.987l1.704-1.053l22.37,36.16c1.597,2.578,5.208,3.24,8.063,1.473
			c2.855-1.77,3.875-5.293,2.279-7.871l-22.374-36.158l1.703-1.055l22.652,36.609c2.123,3.428,0.767,8.113-3.028,10.465
			c-3.795,2.348-8.596,1.471-10.718-1.959L187.155,396.987z"/>
		<path fill="#C5C5C9" d="M185.385,398.766c0.421,0.682,1.317,0.892,1.999,0.47l15.425-9.544c0.682-0.422,0.894-1.316,0.47-1.998
			c-0.422-0.682-1.316-0.891-1.998-0.471l-15.424,9.546C185.175,397.191,184.963,398.083,185.385,398.766z"/>
	</g>
	<path fill="#C5C5C9" d="M192.561,398.421l2.102-1.301l20.002,32.327c0.738,1.193,2.074,1.814,3.479,1.779
		c-0.078,0.057-0.15,0.115-0.233,0.166c-1.977,1.223-4.477,0.766-5.583-1.021L192.561,398.421z"/>
</g>
<path opacity="0.15" fill="#C5C5C9" d="M468.834,718.639c0.675-1.445,1.054-3.057,1.054-4.754c0-1.699-0.379-3.311-1.054-4.754
	V718.639L468.834,718.639z M468.834,725.447v-2.523c0.26,0.004,0.52,0.105,0.723,0.305l0,0l3.536,3.543
	c0.408,0.404,0.408,1.068,0,1.471c-0.403,0.406-1.063,0.406-1.466,0L468.834,725.447L468.834,725.447z M468.834,704.869v-2.523
	l2.793-2.795c0.402-0.406,1.063-0.406,1.466,0c0.408,0.408,0.408,1.064,0,1.473l-3.536,3.543l0,0
	C469.354,704.764,469.094,704.865,468.834,704.869L468.834,704.869z M477.997,712.857L477.997,712.857h-5.011
	c-0.573,0-1.036,0.467-1.036,1.041s0.463,1.041,1.036,1.041h5.011c0.573,0,1.036-0.467,1.036-1.041S478.57,712.857,477.997,712.857z
	 M458.67,737.635h0.787c3.065-0.002,5.544-2.486,5.546-5.547v-8.949c1.644-1.127,2.974-2.68,3.831-4.5v-9.508
	c-1.79-3.816-5.67-6.461-10.164-6.461v2.311c2.465,0,4.68,0.998,6.298,2.607c1.614,1.613,2.602,3.834,2.602,6.297
	c0,3.244-1.731,6.074-4.32,7.635l0,0c-0.348,0.207-0.561,0.586-0.561,0.992v5.125h-4.019V737.635L458.67,737.635z M468.834,702.346
	v2.523c-0.271,0.004-0.543-0.098-0.749-0.303c-0.411-0.406-0.411-1.068,0-1.473L468.834,702.346L468.834,702.346z M468.834,722.924
	v2.523l-0.749-0.748c-0.411-0.406-0.411-1.063,0-1.471C468.291,723.023,468.563,722.918,468.834,722.924L468.834,722.924z
	 M458.67,700.695v-7.086l0.083-0.002c0.571,0,1.036,0.469,1.036,1.047v5.002c0,0.578-0.465,1.043-1.036,1.043l0,0L458.67,700.695z
	 M458.67,702.67c-4.428,0-8.259,2.568-10.08,6.303v9.824c0.892,1.824,2.263,3.373,3.949,4.477v8.814
	c0,3.061,2.483,5.545,5.549,5.547h0.582v-9.998h-3.815v-5.014c0-0.414-0.22-0.795-0.588-1.004c-2.688-1.531-4.497-4.422-4.497-7.734
	c0-2.463,0.992-4.684,2.603-6.297c1.62-1.609,3.84-2.607,6.298-2.607V702.67L458.67,702.67z M458.67,693.609v7.086
	c-0.538-0.039-0.962-0.488-0.962-1.039v-5.002C457.708,694.104,458.132,693.654,458.67,693.609L458.67,693.609z M448.59,725.527
	v-2.6c0.297-0.025,0.601,0.074,0.827,0.301c0.405,0.408,0.405,1.064,0,1.471L448.59,725.527L448.59,725.527z M448.59,704.865v-2.6
	l0.827,0.828c0.405,0.404,0.405,1.066,0,1.473C449.192,704.791,448.887,704.891,448.59,704.865z M448.59,708.973
	c-0.723,1.482-1.131,3.15-1.131,4.912s0.408,3.426,1.131,4.912V708.973L448.59,708.973z M448.59,702.266v2.6
	c-0.234-0.021-0.463-0.121-0.642-0.299l0,0l-3.54-3.543c-0.412-0.408-0.412-1.064,0-1.473c0.403-0.406,1.063-0.406,1.471,0
	L448.59,702.266L448.59,702.266z M448.59,722.928v2.6l-2.711,2.715c-0.408,0.406-1.067,0.406-1.471,0
	c-0.412-0.402-0.412-1.066,0-1.471l3.54-3.543l0,0C448.127,723.049,448.355,722.947,448.59,722.928L448.59,722.928z
	 M445.551,713.898L445.551,713.898c0-0.574-0.464-1.041-1.035-1.041h-5.011c-0.576,0-1.039,0.467-1.039,1.041
	s0.463,1.041,1.039,1.041h5.011C445.087,714.939,445.551,714.473,445.551,713.898z"/>
<g opacity="0.15">
	<path fill="#C5C5C9" d="M400.864,408.115c-0.502,2.898-3.255,4.842-6.154,4.34s-4.839-3.258-4.338-6.158
		c0.503-2.895,3.259-4.838,6.157-4.336C399.427,402.463,401.367,405.219,400.864,408.115z"/>
	<path fill="#C5C5C9" d="M397.766,404.09c0.043-0.248-6.015-30.6-6.015-30.6s-3.688-5.539-4.178-5.623
		c-0.492-0.085,6.428,36.499,6.428,36.499L397.766,404.09z"/>
	<polygon fill="#C5C5C9" points="394.845,402.908 412.409,377.576 417.894,373.712 415.392,379.865 398.348,405.119 
		394.624,403.209 	"/>
	<path fill="#C5C5C9" d="M393.555,411.113c0.091-0.529,0.594-0.881,1.124-0.789s0.883,0.594,0.792,1.121l-0.664,3.834
		c-0.093,0.531-0.595,0.887-1.125,0.793c-0.528-0.09-0.883-0.594-0.792-1.123L393.555,411.113z"/>
</g>
<path opacity="0.15" fill="#C5C5C9" d="M413.881,137.983c0.676-1.443,1.055-3.053,1.055-4.751c0-1.7-0.379-3.312-1.055-4.756
	V137.983L413.881,137.983z M413.881,144.792v-2.522c0.261,0.004,0.522,0.104,0.725,0.305l0,0l3.537,3.544
	c0.407,0.403,0.407,1.064,0,1.468c-0.405,0.407-1.064,0.407-1.468,0L413.881,144.792L413.881,144.792z M413.881,124.215v-2.524
	l2.794-2.792c0.403-0.408,1.063-0.408,1.468,0c0.407,0.406,0.407,1.063,0,1.47l-3.537,3.542l0,0
	C414.403,124.11,414.142,124.21,413.881,124.215L413.881,124.215z M423.045,132.205L423.045,132.205h-5.009
	c-0.572,0-1.038,0.466-1.038,1.04c0,0.573,0.466,1.04,1.038,1.04h5.009c0.573,0,1.038-0.466,1.038-1.04
	C424.083,132.671,423.618,132.205,423.045,132.205z M403.719,156.981h0.786c3.065-0.003,5.545-2.487,5.548-5.546v-8.951
	c1.643-1.126,2.973-2.679,3.828-4.501v-9.507c-1.79-3.817-5.668-6.46-10.162-6.46v2.312c2.464,0,4.679,0.996,6.297,2.609
	c1.613,1.609,2.604,3.832,2.604,6.295c0,3.243-1.731,6.072-4.323,7.632l0,0c-0.348,0.207-0.56,0.589-0.56,0.992v5.127h-4.018
	V156.981L403.719,156.981z M413.881,121.69v2.524c-0.271,0.003-0.543-0.098-0.748-0.305c-0.411-0.404-0.411-1.067,0-1.472
	L413.881,121.69L413.881,121.69z M413.881,142.27v2.522l-0.748-0.748c-0.411-0.406-0.411-1.063,0-1.47
	C413.338,142.368,413.61,142.266,413.881,142.27L413.881,142.27z M403.719,120.042v-7.084l0.082-0.003
	c0.572,0,1.038,0.466,1.038,1.042v5.007c0,0.576-0.466,1.04-1.038,1.04l0,0L403.719,120.042z M403.719,122.015
	c-4.429,0-8.26,2.571-10.08,6.302v9.825c0.892,1.824,2.263,3.372,3.951,4.477v8.815c0,3.059,2.482,5.543,5.545,5.546h0.584v-9.998
	h-3.815v-5.014c0-0.413-0.22-0.796-0.587-1.003c-2.688-1.533-4.499-4.421-4.499-7.734c0-2.464,0.992-4.686,2.603-6.295
	c1.622-1.613,3.84-2.609,6.299-2.609V122.015L403.719,122.015z M403.719,112.958v7.084c-0.538-0.042-0.962-0.49-0.962-1.038v-5.007
	C402.757,113.448,403.181,112.999,403.719,112.958L403.719,112.958z M393.639,144.872v-2.598c0.295-0.027,0.601,0.074,0.827,0.3
	c0.406,0.406,0.406,1.063,0,1.47L393.639,144.872L393.639,144.872z M393.639,124.21v-2.6l0.827,0.827
	c0.406,0.405,0.406,1.068,0,1.472C394.241,124.137,393.934,124.237,393.639,124.21z M393.639,128.317
	c-0.723,1.485-1.13,3.151-1.13,4.914c0,1.761,0.407,3.427,1.13,4.911V128.317L393.639,128.317z M393.639,121.611v2.6
	c-0.234-0.021-0.463-0.121-0.643-0.3l0,0l-3.539-3.542c-0.41-0.406-0.41-1.063,0-1.47c0.405-0.408,1.063-0.408,1.472,0
	L393.639,121.611L393.639,121.611z M393.639,142.274v2.598l-2.71,2.715c-0.409,0.407-1.067,0.407-1.472,0
	c-0.41-0.404-0.41-1.065,0-1.468l3.539-3.544l0,0C393.175,142.395,393.405,142.294,393.639,142.274L393.639,142.274z
	 M390.601,133.245L390.601,133.245c0-0.574-0.466-1.04-1.037-1.04h-5.012c-0.574,0-1.038,0.466-1.038,1.04
	c0,0.573,0.464,1.04,1.038,1.04h5.012C390.134,134.284,390.601,133.818,390.601,133.245z"/>
</svg>
