<?xml version="1.0" encoding="utf-8"?>
<!-- Generator: Adobe Illustrator 16.0.0, SVG Export Plug-In . SVG Version: 6.00 Build 0)  -->
<!DOCTYPE svg PUBLIC "-//W3C//DTD SVG 1.1//EN" "http://www.w3.org/Graphics/SVG/1.1/DTD/svg11.dtd">
<svg version="1.1" id="Layer_1" xmlns="http://www.w3.org/2000/svg" xmlns:xlink="http://www.w3.org/1999/xlink" x="0px" y="0px"
	 width="100px" height="100px" viewBox="0 0 100 100" enable-background="new 0 0 100 100" xml:space="preserve">
<path fill="#FFFFFF" d="M48.487,39.731"/>
<path fill="#FFFFFF" d="M35.059,49.029"/>
<path fill="#FFFFFF" d="M24.342,59.854"/>
<g>
	<g>
		<path fill="#FFFFFF" d="M37.221,84.519c3.386,1.308,6.771,2.32,10.16,3.079c-0.648,0.055-1.303,0.095-1.962,0.115
			c-3.354-0.727-6.699-1.709-10.03-2.992c-1.279-0.639-2.61-1.301-4.572-1.959C19.632,77.144,11.814,68.803,6.661,58.866
			c-0.314-1.188-0.57-2.396-0.768-3.625c1.027,2.164,2.156,4.232,3.385,6.205c5.662,9.091,13.49,16.179,23.271,21.068l0.202,0.083
			c1.846,0.617,3.057,1.222,4.337,1.864L37.221,84.519z"/>
		<path fill="#FFFFFF" d="M5.532,45.861c0.085-1.024,0.208-2.038,0.372-3.037c1.771,5.866,4.163,11.221,7.146,16.011
			c5.661,9.089,13.489,16.177,23.271,21.067l0.201,0.084c1.843,0.614,3.057,1.222,4.341,1.864l0.133,0.058
			c4.955,1.914,9.92,3.197,14.889,3.969c-5.854-0.635-11.688-1.966-17.486-4.197c-1.28-0.639-2.611-1.297-4.573-1.959
			C19.076,72.313,10.176,60.163,5.532,45.861z"/>
	</g>
</g>
<path fill="#FFFFFF" d="M78.586,31.477c-1.321,2.528-2.731,5.193-4.3,7.9c-1.011,1.727-2.086,3.495-3.317,5.109
	c-0.309,0.398-0.629,0.788-0.956,1.146c-0.331,0.359-0.677,0.686-1.014,0.932c-0.323,0.249-0.673,0.369-0.732,0.341
	c-0.031-0.006,0.002-0.014-0.025-0.03c-0.023-0.02-0.099-0.092-0.184-0.219c-0.175-0.242-0.362-0.672-0.495-1.095l-0.049-0.164
	l-0.057-0.202l-0.109-0.386l-0.234-0.826c-0.318-1.106-0.674-2.215-1.073-3.324c-0.403-1.109-0.853-2.218-1.375-3.317
	c-0.521-1.102-1.126-2.194-1.856-3.255c-0.744-1.055-1.617-2.093-2.758-2.97c-1.129-0.874-2.584-1.566-4.149-1.744
	c-0.774-0.096-1.56-0.078-2.304,0.034c-0.747,0.113-1.457,0.308-2.126,0.554c-1.341,0.495-2.511,1.18-3.593,1.924
	c-2.147,1.501-3.946,3.245-5.627,5.02c-1.676,1.785-3.215,3.624-4.699,5.457c-1.451,1.816-2.888,3.621-4.307,5.402
	c-0.703,0.873-1.402,1.727-2.099,2.528c-0.594,0.683-1.194,1.339-1.768,1.883c-0.461-1.549-0.771-3.262-1.003-4.955
	c-0.253-1.89-0.417-3.781-0.532-5.621c-0.117-1.839-0.178-3.634-0.212-5.364c-0.075-3.454-0.027-6.647,0.042-9.474
	c0.075-2.829,0.184-5.296,0.29-7.326c0.108-2.034,0.215-3.625,0.29-4.706c0.034-0.427,0.058-0.775,0.079-1.038
	c4.815-2.154,10.149-3.348,15.767-3.348C59.144,10.346,72.184,18.936,78.586,31.477z"/>
<path fill="#FFFFFF" d="M82.793,49.041c0,14.999-8.535,28.004-21.012,34.43c-6.568-0.527-13.114-1.896-19.612-4.401
	c-1.28-0.642-2.611-1.301-4.57-1.963c-17.005-8.541-26.236-23.38-30.133-40.559c2.334-6.853,6.539-12.838,12.005-17.353v0.044
	c0.014,2.095,0.051,4.638,0.147,7.555c0.099,2.921,0.246,6.214,0.536,9.825c0.143,1.802,0.317,3.686,0.56,5.641
	c0.239,1.958,0.529,3.986,0.942,6.091c0.423,2.109,0.931,4.287,1.843,6.61c0.099,0.284,0.249,0.588,0.382,0.885l0.208,0.446
	l0.051,0.109l0.079,0.154l0.023,0.043l0.099,0.182c0.085,0.147,0.177,0.293,0.273,0.437c0.092,0.141,0.185,0.257,0.284,0.383
	c0.205,0.252,0.46,0.519,0.774,0.773c0.16,0.128,0.348,0.254,0.529,0.365c0.205,0.112,0.406,0.219,0.628,0.304
	c0.44,0.176,0.924,0.281,1.368,0.302c0.905,0.047,1.614-0.168,2.144-0.38c0.533-0.226,0.928-0.47,1.28-0.71
	c0.696-0.487,1.201-0.966,1.672-1.437c0.925-0.94,1.675-1.877,2.399-2.812c0.724-0.938,1.402-1.876,2.075-2.818
	c1.311-1.861,2.634-3.741,3.969-5.635c1.334-1.86,2.699-3.692,4.143-5.422c1.44-1.723,2.972-3.362,4.62-4.665
	c1.642-1.297,3.444-2.202,5.003-2.092c0.781,0.041,1.55,0.321,2.305,0.826c0.75,0.501,1.453,1.218,2.095,2.023
	c1.275,1.635,2.29,3.604,3.156,5.611c0.435,1.01,0.829,2.034,1.194,3.068l0.27,0.778l0.144,0.413l0.067,0.198l0.091,0.232
	c0.244,0.621,0.515,1.218,1.016,1.853c0.253,0.311,0.576,0.638,1.031,0.891c0.447,0.256,1.033,0.392,1.553,0.345
	c0.515-0.041,0.944-0.205,1.293-0.386c0.354-0.185,0.641-0.396,0.904-0.611c0.513-0.43,0.921-0.88,1.297-1.334
	c0.371-0.457,0.706-0.915,1.021-1.378c1.242-1.85,2.225-3.716,3.157-5.542c1.224-2.44,2.326-4.812,3.351-7.082
	C81.599,38.094,82.793,43.427,82.793,49.041z"/>
<path fill="#FFFFFF" d="M79.445,33.278c-0.27-0.611-0.556-1.211-0.859-1.801L79.445,33.278z"/>
<g>
	<path fill="#FFFFFF" d="M61.781,83.471c-1.863,0.956-3.815,1.768-5.839,2.416L61.781,83.471z"/>
</g>
<text transform="matrix(1 0 0 1 80.9873 25.7627)" fill="#FFFFFF" font-family="'Centaur'" font-size="9.7194">TM</text>
</svg>
